<?xml version="1.0" standalone="no"?>
<!DOCTYPE svg PUBLIC "-//W3C//DTD SVG 1.1//EN" 
"http://www.w3.org/Graphics/SVG/1.1/DTD/svg11.dtd"> 
<svg
  xmlns="http://www.w3.org/2000/svg"
  version="1.1"
  width="11.7in" height="8.267in" viewBox="0 0 117000 82670 "
>
  <title>SVG Picture created as TS Electrical System-Drawings.svg </title>
  <desc>Picture generated by wxSVG v0101 </desc>
  <g style="fill:black; stroke:black; stroke-width:1">
</g>
<g style="fill:#000000; fill-opacity:0.0; 
  stroke:#FFFF00; stroke-linecap:round; stroke-linejoin:round; stroke-opacity:1.0; stroke-opacity:1.0; stroke-width:150" 
   transform="translate(0 0) scale(1 1)">
<path d="M81300 11500 L82200 11500" /> 
<path d="M76600 6800 L81300 11500" /> 
<path d="M76600 10400 L76600 6800" /> 
<path d="M89300 10400 L76600 10400" /> 
<path d="M84900 14800 L89300 10400" /> 
<path d="M84900 7700 L84900 14800" /> 
<path d="M95700 65700 L95700 63200" /> 
<path d="M86600 65700 L95700 65700" /> 
<path d="M92100 71200 L86600 65700" /> 
<path d="M92100 61300 L92100 71200" /> 
<path d="M105800 40300 L105800 40000" /> 
<path d="M109600 44100 L105800 40300" /> 
<path d="M102700 44100 L109600 44100" /> 
<path d="M105900 50900 L106600 50900" /> 
<path d="M105900 36700 L105900 50900" /> 
<path d="M55500 12300 L55500 11200" /> 
<path d="M64000 12300 L55500 12300" /> 
<path d="M59700 8000 L64000 12300" /> 
<path d="M59700 16000 L59800 16000" /> 
<path d="M59700 8000 L59700 16000" /> 
<path d="M100000 60000 L80000 60000" /> 
<path d="M100000 20000 L100000 60000" /> 
<path d="M21000 20000 L100000 20000" /> 
<path d="M49665 70677 L49665 70079" /> 
<path d="M41067 70677 L49665 70677" /> 
<path d="M45866 75476 L41067 70677" /> 
<path d="M45866 65476 L45866 75476" /> 
<path d="M48531 11846 L48567 11846" /> 
<path d="M48531 11874 L48531 12236" /> 
<path d="M13610 39354 L13610 38874" /> 
<path d="M6291 39354 L13610 39354" /> 
<path d="M10252 43315 L6291 39354" /> 
<path d="M10252 51594 L10252 43315" /> 
<path d="M10252 34193 L10252 51594" /> 
</g>
<g style="fill:#000000; fill-opacity:0.0; 
  stroke:#C0C0C0; stroke-linecap:round; stroke-linejoin:round; stroke-opacity:1.0; stroke-opacity:1.0; stroke-width:150" 
   transform="translate(0 0) scale(1 1)">
<path d="M92441 62177 L92441 62295" /> 
<path d="M87039 67697 L86921 67697" /> 
<path d="M14949 15681 L14949 17083" /> 
<path d="M7551 15681 L14949 15681" /> 
<path d="M11350 22882 L11752 22882" /> 
<path d="M11350 9882 L11350 22882" /> 
<path d="M7571 64598 L17409 64598" /> 
<path d="M12846 70839 L12850 70839" /> 
<path d="M12768 70917 L12846 70839" /> 
<path d="M12768 59476 L12768 70917" /> 
<path d="M95862 16150 L95862 16102" /> 
<path d="M90013 20201 L90162 20201" /> 
</g>
<g style="fill:#000000; fill-opacity:0.0; 
  stroke:#FFFF00; stroke-linecap:round; stroke-linejoin:round; stroke-opacity:1.0; stroke-opacity:1.0; stroke-width:150" 
   transform="translate(0 0) scale(1 1)">
<path d="M20000 20000 L21000 20000" /> 
<path d="M20000 60000 L20000 20000" /> 
<path d="M80000 60000 L20000 60000" /> 
</g> 
</svg> 
