<?xml version="1.0" standalone="no"?>
<!DOCTYPE svg PUBLIC "-//W3C//DTD SVG 1.1//EN" 
"http://www.w3.org/Graphics/SVG/1.1/DTD/svg11.dtd"> 
<svg
  xmlns="http://www.w3.org/2000/svg"
  version="1.1"
  width="11.7in" height="8.267in" viewBox="0 0 117000 82670 "
>
  <title>SVG Picture created as TS Electrical System-Front.svg </title>
  <desc>Picture generated by wxSVG v0101 </desc>
  <g style="fill:black; stroke:black; stroke-width:1">
</g>
<g style="fill:#000000; fill-opacity:0.0; 
  stroke:#000000; stroke-linecap:round; stroke-linejoin:round; stroke-opacity:1.0; stroke-opacity:1.0; stroke-width:150" 
   transform="translate(0 0) scale(1 1)">
<path d="M81300 11500 L82200 11500" /> 
<path d="M76600 6800 L81300 11500" /> 
<path d="M76600 10400 L76600 6800" /> 
<path d="M89300 10400 L76600 10400" /> 
<path d="M84900 14800 L89300 10400" /> 
<path d="M84900 7700 L84900 14800" /> 
<path d="M95700 65700 L95700 63200" /> 
<path d="M86600 65700 L95700 65700" /> 
<path d="M92100 71200 L86600 65700" /> 
<path d="M92100 61300 L92100 71200" /> 
<path d="M105800 40300 L105800 40000" /> 
<path d="M109600 44100 L105800 40300" /> 
<path d="M102700 44100 L109600 44100" /> 
<path d="M105900 50900 L106600 50900" /> 
<path d="M105900 36700 L105900 50900" /> 
<path d="M55500 12300 L55500 11200" /> 
<path d="M64000 12300 L55500 12300" /> 
<path d="M59700 8000 L64000 12300" /> 
<path d="M59700 16000 L59800 16000" /> 
<path d="M59700 8000 L59700 16000" /> 
<path d="M49665 70677 L49665 70079" /> 
<path d="M41067 70677 L49665 70677" /> 
<path d="M45866 75476 L41067 70677" /> 
<path d="M45866 65476 L45866 75476" /> 
<path d="M48531 11846 L48567 11846" /> 
<path d="M48531 11874 L48531 12236" /> 
<path d="M13610 39354 L13610 38874" /> 
<path d="M6291 39354 L13610 39354" /> 
<path d="M10252 43315 L6291 39354" /> 
<path d="M10252 51594 L10252 43315" /> 
<path d="M10252 34193 L10252 51594" /> 
</g>
<g style="fill:#000000; fill-opacity:0.0; 
  stroke:#000000; stroke-linecap:round; stroke-linejoin:round; stroke-opacity:1.0; stroke-opacity:1.0; stroke-width:3000" 
   transform="translate(0 0) scale(1 1)">
<path d="M25000 39975 L30000 39975" /> 
<path d="M22525 42500 L22525 42450" /> 
<path d="M22525 42450 L25000 39975" /> 
<path d="M22500 37500 L22525 37500" /> 
<path d="M22525 37500 L25000 39975" /> 
</g>
<g style="fill:#000000; fill-opacity:1.0; 
  stroke:#000000; stroke-linecap:round; stroke-linejoin:round; stroke-opacity:1.0; stroke-opacity:1.0; stroke-width:0" 
   transform="translate(0 0) scale(1 1)">
<ellipse cx="22525" cy="32500" rx="175" ry="175"  /> 
</g>
<g style="fill:#000000; fill-opacity:1.0; 
  stroke:#000000; stroke-linecap:round; stroke-linejoin:round; stroke-opacity:1.0; stroke-opacity:1.0; stroke-width:3000" 
   transform="translate(0 0) scale(1 1)">
<path d="M87500 56000 L87500 45300" /> 
<path d="M87200 45000 L86900 44700" /> 
<path d="M67500 46600 L65600 44700" /> 
<path d="M95500 45000 L87200 45000" /> 
<path d="M43100 35700 L47500 31300" /> 
<path d="M41400 35700 L43100 35700" /> 
<path d="M87500 45300 L86900 44700" /> 
<path d="M86900 44700 L74800 44700" /> 
<path d="M77500 56000 L77500 47400" /> 
<path d="M74800 44700 L65600 44700" /> 
<path d="M37500 50000 L37200 49700" /> 
<path d="M41400 35700 L41400 44700" /> 
<path d="M57500 24000 L57500 30600" /> 
<path d="M37100 49700 L37000 49600" /> 
<path d="M65600 44700 L52000 44700" /> 
<path d="M37200 49700 L37100 49700" /> 
<path d="M57500 56000 L57500 50200" /> 
<path d="M52000 44700 L41400 44700" /> 
<path d="M57500 50200 L52000 44700" /> 
<path d="M47500 56000 L47500 50800" /> 
<path d="M47500 50800 L41400 44700" /> 
<path d="M37500 56000 L37500 50000" /> 
<path d="M37000 49600 L37000 49100" /> 
<path d="M27500 30000 L27700 30200" /> 
<path d="M27500 24000 L27500 30000" /> 
<path d="M77500 24000 L77500 30900" /> 
<path d="M27500 50200 L28300 49400" /> 
<path d="M27500 56000 L27500 50200" /> 
<path d="M37000 49100 L41400 44700" /> 
<path d="M37500 24000 L37500 29900" /> 
<path d="M37500 29900 L37400 30000" /> 
<path d="M47500 24000 L47500 31300" /> 
<path d="M47500 31300 L47400 31400" /> 
<path d="M97500 49000 L97500 56000" /> 
<path d="M77500 47400 L74800 44700" /> 
<path d="M67500 56000 L67500 46600" /> 
<path d="M67500 24000 L67500 30700" /> 
<path d="M67500 30700 L67800 31000" /> 
<path d="M95500 47000 L97500 49000" /> 
<path d="M77500 30900 L77700 31100" /> 
<path d="M87500 24000 L87500 31100" /> 
<path d="M87500 31100 L87600 31200" /> 
<path d="M97500 24000 L97500 29800" /> 
<path d="M97500 29800 L97400 29900" /> 
<path d="M95500 45000 L95500 47000" /> 
</g>
<g style="fill:#000000; fill-opacity:1.0; 
  stroke:#000000; stroke-linecap:round; stroke-linejoin:round; stroke-opacity:1.0; stroke-opacity:1.0; stroke-width:100" 
   transform="translate(0 0) scale(1 1)">
<path d="M99475 52250 L99475 52250" /> 
<path d="M98800 52250 L99475 52250" /> 
<path d="M98800 34347 L98800 52250" /> 
<path d="M98299 33134 L98800 34347" /> 
<path d="M97372 32205 L98299 33134" /> 
<path d="M96160 31701 L97372 32205" /> 
<path d="M94847 31700 L96160 31701" /> 
<path d="M93634 32201 L94847 31700" /> 
<path d="M92705 33128 L93634 32201" /> 
<path d="M92201 34340 L92705 33128" /> 
<path d="M92200 35653 L92201 34340" /> 
<path d="M92701 36866 L92200 35653" /> 
<path d="M93628 37795 L92701 36866" /> 
<path d="M94840 38299 L93628 37795" /> 
<path d="M96153 38300 L94840 38299" /> 
<path d="M97366 37799 L96153 38300" /> 
<path d="M98295 36872 L97366 37799" /> 
<path d="M98799 35660 L98295 36872" /> 
<path d="M98800 34347 L98799 35660" /> 
<path d="M98800 52250 L98800 34347" /> 
<path d="M95099 52250 L98800 52250" /> 
<path d="M95099 52161 L95099 52250" /> 
<path d="M95031 51996 L95099 52161" /> 
<path d="M94905 51870 L95031 51996" /> 
<path d="M94740 51801 L94905 51870" /> 
<path d="M94561 51801 L94740 51801" /> 
<path d="M90261 51801 L94561 51801" /> 
<path d="M90096 51869 L90261 51801" /> 
<path d="M89970 51995 L90096 51869" /> 
<path d="M89901 52160 L89970 51995" /> 
<path d="M89901 52250 L89901 52160" /> 
<path d="M85099 52250 L89901 52250" /> 
<path d="M85099 52161 L85099 52250" /> 
<path d="M85031 51996 L85099 52161" /> 
<path d="M84905 51870 L85031 51996" /> 
<path d="M84740 51801 L84905 51870" /> 
<path d="M84561 51801 L84740 51801" /> 
<path d="M80261 51801 L84561 51801" /> 
<path d="M80096 51869 L80261 51801" /> 
<path d="M79970 51995 L80096 51869" /> 
<path d="M79901 52160 L79970 51995" /> 
<path d="M79901 52250 L79901 52160" /> 
<path d="M75099 52250 L79901 52250" /> 
<path d="M75099 52161 L75099 52250" /> 
<path d="M75031 51996 L75099 52161" /> 
<path d="M74905 51870 L75031 51996" /> 
<path d="M74740 51801 L74905 51870" /> 
<path d="M74561 51801 L74740 51801" /> 
<path d="M70261 51801 L74561 51801" /> 
<path d="M70096 51869 L70261 51801" /> 
<path d="M69970 51995 L70096 51869" /> 
<path d="M69901 52160 L69970 51995" /> 
<path d="M69901 52250 L69901 52160" /> 
<path d="M65099 52250 L69901 52250" /> 
<path d="M65099 52161 L65099 52250" /> 
<path d="M65031 51996 L65099 52161" /> 
<path d="M64905 51870 L65031 51996" /> 
<path d="M64740 51801 L64905 51870" /> 
<path d="M64561 51801 L64740 51801" /> 
<path d="M60261 51801 L64561 51801" /> 
<path d="M60096 51869 L60261 51801" /> 
<path d="M59970 51995 L60096 51869" /> 
<path d="M59901 52160 L59970 51995" /> 
<path d="M59901 52250 L59901 52160" /> 
<path d="M55099 52250 L59901 52250" /> 
<path d="M55099 52161 L55099 52250" /> 
<path d="M55031 51996 L55099 52161" /> 
<path d="M54905 51870 L55031 51996" /> 
<path d="M54740 51801 L54905 51870" /> 
<path d="M54561 51801 L54740 51801" /> 
<path d="M50261 51801 L54561 51801" /> 
<path d="M50096 51869 L50261 51801" /> 
<path d="M49970 51995 L50096 51869" /> 
<path d="M49901 52160 L49970 51995" /> 
<path d="M49901 52250 L49901 52160" /> 
<path d="M45099 52250 L49901 52250" /> 
<path d="M45099 52161 L45099 52250" /> 
<path d="M45031 51996 L45099 52161" /> 
<path d="M44905 51870 L45031 51996" /> 
<path d="M44740 51801 L44905 51870" /> 
<path d="M44561 51801 L44740 51801" /> 
<path d="M40261 51801 L44561 51801" /> 
<path d="M40096 51869 L40261 51801" /> 
<path d="M39970 51995 L40096 51869" /> 
<path d="M39901 52160 L39970 51995" /> 
<path d="M39901 52250 L39901 52160" /> 
<path d="M37850 52250 L39901 52250" /> 
<path d="M37850 44413 L37850 52250" /> 
<path d="M37850 35413 L37850 44413" /> 
<path d="M37630 34880 L37850 35413" /> 
<path d="M37222 34472 L37630 34880" /> 
<path d="M36690 34251 L37222 34472" /> 
<path d="M36113 34250 L36690 34251" /> 
<path d="M35580 34470 L36113 34250" /> 
<path d="M35172 34878 L35580 34470" /> 
<path d="M34951 35410 L35172 34878" /> 
<path d="M34950 35987 L34951 35410" /> 
<path d="M35170 36520 L34950 35987" /> 
<path d="M35578 36928 L35170 36520" /> 
<path d="M36110 37149 L35578 36928" /> 
<path d="M36687 37150 L36110 37149" /> 
<path d="M37220 36930 L36687 37150" /> 
<path d="M37628 36522 L37220 36930" /> 
<path d="M37849 35990 L37628 36522" /> 
<path d="M37850 35413 L37849 35990" /> 
<path d="M37850 44413 L37850 35413" /> 
<path d="M37630 43880 L37850 44413" /> 
<path d="M37222 43472 L37630 43880" /> 
<path d="M36690 43251 L37222 43472" /> 
<path d="M36113 43250 L36690 43251" /> 
<path d="M35580 43470 L36113 43250" /> 
<path d="M35172 43878 L35580 43470" /> 
<path d="M34951 44410 L35172 43878" /> 
<path d="M34950 44987 L34951 44410" /> 
<path d="M35170 45520 L34950 44987" /> 
<path d="M35578 45928 L35170 45520" /> 
<path d="M36110 46149 L35578 45928" /> 
<path d="M36687 46150 L36110 46149" /> 
<path d="M37220 45930 L36687 46150" /> 
<path d="M37628 45522 L37220 45930" /> 
<path d="M37849 44990 L37628 45522" /> 
<path d="M37850 44413 L37849 44990" /> 
<path d="M37850 52250 L37850 44413" /> 
<path d="M35099 52250 L37850 52250" /> 
<path d="M35099 52161 L35099 52250" /> 
<path d="M35031 51996 L35099 52161" /> 
<path d="M34905 51870 L35031 51996" /> 
<path d="M34740 51801 L34905 51870" /> 
<path d="M34561 51801 L34740 51801" /> 
<path d="M31950 51801 L34561 51801" /> 
<path d="M31950 39975 L31950 51801" /> 
<path d="M31949 39972 L31950 39975" /> 
<path d="M31950 39589 L31949 39972" /> 
<path d="M31802 39231 L31950 39589" /> 
<path d="M31802 39229 L31802 39231" /> 
<path d="M31800 39226 L31802 39229" /> 
<path d="M31654 38872 L31800 39226" /> 
<path d="M31380 38597 L31654 38872" /> 
<path d="M31379 38596 L31380 38597" /> 
<path d="M31377 38595 L31379 38596" /> 
<path d="M31106 38323 L31377 38595" /> 
<path d="M30748 38174 L31106 38323" /> 
<path d="M30746 38173 L30748 38174" /> 
<path d="M30742 38172 L30746 38173" /> 
<path d="M30390 38026 L30742 38172" /> 
<path d="M30002 38025 L30390 38026" /> 
<path d="M30000 38025 L30002 38025" /> 
<path d="M29614 38025 L30000 38025" /> 
<path d="M26799 38025 L29614 38025" /> 
<path d="M26799 32940 L26799 38025" /> 
<path d="M26799 32761 L26799 32940" /> 
<path d="M26799 32061 L26799 32761" /> 
<path d="M26731 31896 L26799 32061" /> 
<path d="M26605 31770 L26731 31896" /> 
<path d="M26440 31701 L26605 31770" /> 
<path d="M26261 31701 L26440 31701" /> 
<path d="M25561 31701 L26261 31701" /> 
<path d="M25396 31769 L25561 31701" /> 
<path d="M25270 31895 L25396 31769" /> 
<path d="M25201 32060 L25270 31895" /> 
<path d="M25201 32239 L25201 32060" /> 
<path d="M25201 32939 L25201 32239" /> 
<path d="M25269 33104 L25201 32939" /> 
<path d="M25395 33230 L25269 33104" /> 
<path d="M25560 33299 L25395 33230" /> 
<path d="M25739 33299 L25560 33299" /> 
<path d="M26439 33299 L25739 33299" /> 
<path d="M26604 33231 L26439 33299" /> 
<path d="M26730 33105 L26604 33231" /> 
<path d="M26799 32940 L26730 33105" /> 
<path d="M26799 38025 L26799 32940" /> 
<path d="M25808 38025 L26799 38025" /> 
<path d="M24475 36692 L25808 38025" /> 
<path d="M24475 32114 L24475 36692" /> 
<path d="M24179 31397 L24475 32114" /> 
<path d="M23631 30848 L24179 31397" /> 
<path d="M22915 30551 L23631 30848" /> 
<path d="M22139 30550 L22915 30551" /> 
<path d="M21422 30846 L22139 30550" /> 
<path d="M20873 31394 L21422 30846" /> 
<path d="M20576 32110 L20873 31394" /> 
<path d="M20575 32886 L20576 32110" /> 
<path d="M20871 33603 L20575 32886" /> 
<path d="M21419 34152 L20871 33603" /> 
<path d="M22135 34449 L21419 34152" /> 
<path d="M22911 34450 L22135 34449" /> 
<path d="M23628 34154 L22911 34450" /> 
<path d="M24177 33606 L23628 34154" /> 
<path d="M24474 32890 L24177 33606" /> 
<path d="M24475 32114 L24474 32890" /> 
<path d="M24475 36692 L24475 32114" /> 
<path d="M23904 36121 L24475 36692" /> 
<path d="M23827 36069 L23904 36121" /> 
<path d="M23606 35848 L23827 36069" /> 
<path d="M23317 35728 L23606 35848" /> 
<path d="M23272 35698 L23317 35728" /> 
<path d="M23219 35687 L23272 35698" /> 
<path d="M22890 35551 L23219 35687" /> 
<path d="M22527 35550 L22890 35551" /> 
<path d="M22525 35550 L22527 35550" /> 
<path d="M22522 35550 L22525 35550" /> 
<path d="M22500 35550 L22522 35550" /> 
<path d="M22497 35550 L22500 35550" /> 
<path d="M22114 35550 L22497 35550" /> 
<path d="M21756 35697 L22114 35550" /> 
<path d="M21754 35698 L21756 35697" /> 
<path d="M21751 35699 L21754 35698" /> 
<path d="M21397 35846 L21751 35699" /> 
<path d="M21122 36119 L21397 35846" /> 
<path d="M21121 36121 L21122 36119" /> 
<path d="M21120 36122 L21121 36121" /> 
<path d="M20848 36394 L21120 36122" /> 
<path d="M20699 36751 L20848 36394" /> 
<path d="M20698 36754 L20699 36751" /> 
<path d="M20697 36757 L20698 36754" /> 
<path d="M20551 37110 L20697 36757" /> 
<path d="M20550 37497 L20551 37110" /> 
<path d="M20550 37500 L20550 37497" /> 
<path d="M20550 37502 L20550 37500" /> 
<path d="M20550 37886 L20550 37502" /> 
<path d="M20697 38243 L20550 37886" /> 
<path d="M20698 38246 L20697 38243" /> 
<path d="M20699 38248 L20698 38246" /> 
<path d="M20846 38603 L20699 38248" /> 
<path d="M21119 38877 L20846 38603" /> 
<path d="M21121 38879 L21119 38877" /> 
<path d="M21122 38879 L21121 38879" /> 
<path d="M21394 39152 L21122 38879" /> 
<path d="M21436 39169 L21394 39152" /> 
<path d="M22242 39975 L21436 39169" /> 
<path d="M21146 41071 L22242 39975" /> 
<path d="M21044 41222 L21146 41071" /> 
<path d="M21044 41223 L21044 41222" /> 
<path d="M20873 41394 L21044 41223" /> 
<path d="M20780 41617 L20873 41394" /> 
<path d="M20779 41619 L20780 41617" /> 
<path d="M20723 41703 L20779 41619" /> 
<path d="M20703 41802 L20723 41703" /> 
<path d="M20703 41803 L20703 41802" /> 
<path d="M20576 42110 L20703 41803" /> 
<path d="M20575 42447 L20576 42110" /> 
<path d="M20575 42450 L20575 42447" /> 
<path d="M20575 42452 L20575 42450" /> 
<path d="M20575 42500 L20575 42452" /> 
<path d="M20575 42502 L20575 42500" /> 
<path d="M20575 42886 L20575 42502" /> 
<path d="M20722 43243 L20575 42886" /> 
<path d="M20723 43246 L20722 43243" /> 
<path d="M20724 43248 L20723 43246" /> 
<path d="M20871 43603 L20724 43248" /> 
<path d="M21144 43877 L20871 43603" /> 
<path d="M21146 43879 L21144 43877" /> 
<path d="M21147 43879 L21146 43879" /> 
<path d="M21419 44152 L21147 43879" /> 
<path d="M21776 44300 L21419 44152" /> 
<path d="M21779 44302 L21776 44300" /> 
<path d="M21782 44302 L21779 44302" /> 
<path d="M22135 44449 L21782 44302" /> 
<path d="M22522 44449 L22135 44449" /> 
<path d="M22525 44450 L22522 44449" /> 
<path d="M22527 44449 L22525 44450" /> 
<path d="M22911 44450 L22527 44449" /> 
<path d="M23268 44302 L22911 44450" /> 
<path d="M23271 44302 L23268 44302" /> 
<path d="M23273 44300 L23271 44302" /> 
<path d="M23628 44154 L23273 44300" /> 
<path d="M23902 43880 L23628 44154" /> 
<path d="M23904 43879 L23902 43880" /> 
<path d="M23904 43877 L23904 43879" /> 
<path d="M24177 43606 L23904 43877" /> 
<path d="M24212 43520 L24177 43606" /> 
<path d="M25808 41925 L24212 43520" /> 
<path d="M30000 41925 L25808 41925" /> 
<path d="M30002 41924 L30000 41925" /> 
<path d="M30386 41925 L30002 41924" /> 
<path d="M30743 41777 L30386 41925" /> 
<path d="M30746 41777 L30743 41777" /> 
<path d="M30748 41775 L30746 41777" /> 
<path d="M31103 41629 L30748 41775" /> 
<path d="M31377 41355 L31103 41629" /> 
<path d="M31379 41354 L31377 41355" /> 
<path d="M31379 41352 L31379 41354" /> 
<path d="M31652 41081 L31379 41352" /> 
<path d="M31800 40723 L31652 41081" /> 
<path d="M31802 40721 L31800 40723" /> 
<path d="M31802 40717 L31802 40721" /> 
<path d="M31949 40365 L31802 40717" /> 
<path d="M31949 39977 L31949 40365" /> 
<path d="M31950 39975 L31949 39977" /> 
<path d="M31950 51801 L31950 39975" /> 
<path d="M30261 51801 L31950 51801" /> 
<path d="M30096 51869 L30261 51801" /> 
<path d="M29970 51995 L30096 51869" /> 
<path d="M29901 52160 L29970 51995" /> 
<path d="M29901 52250 L29901 52160" /> 
<path d="M26799 52250 L29901 52250" /> 
<path d="M26799 47940 L26799 52250" /> 
<path d="M26799 47761 L26799 47940" /> 
<path d="M26799 47061 L26799 47761" /> 
<path d="M26731 46896 L26799 47061" /> 
<path d="M26605 46770 L26731 46896" /> 
<path d="M26440 46701 L26605 46770" /> 
<path d="M26261 46701 L26440 46701" /> 
<path d="M25561 46701 L26261 46701" /> 
<path d="M25396 46769 L25561 46701" /> 
<path d="M25270 46895 L25396 46769" /> 
<path d="M25201 47060 L25270 46895" /> 
<path d="M25201 47239 L25201 47060" /> 
<path d="M25201 47939 L25201 47239" /> 
<path d="M25269 48104 L25201 47939" /> 
<path d="M25395 48230 L25269 48104" /> 
<path d="M25560 48299 L25395 48230" /> 
<path d="M25739 48299 L25560 48299" /> 
<path d="M26439 48299 L25739 48299" /> 
<path d="M26604 48231 L26439 48299" /> 
<path d="M26730 48105 L26604 48231" /> 
<path d="M26799 47940 L26730 48105" /> 
<path d="M26799 52250 L26799 47940" /> 
<path d="M25099 52250 L26799 52250" /> 
<path d="M25099 52161 L25099 52250" /> 
<path d="M25031 51996 L25099 52161" /> 
<path d="M24905 51870 L25031 51996" /> 
<path d="M24740 51801 L24905 51870" /> 
<path d="M24561 51801 L24740 51801" /> 
<path d="M24450 51801 L24561 51801" /> 
<path d="M24450 47114 L24450 51801" /> 
<path d="M24154 46397 L24450 47114" /> 
<path d="M23606 45848 L24154 46397" /> 
<path d="M22890 45551 L23606 45848" /> 
<path d="M22114 45550 L22890 45551" /> 
<path d="M21397 45846 L22114 45550" /> 
<path d="M20848 46394 L21397 45846" /> 
<path d="M20551 47110 L20848 46394" /> 
<path d="M20550 47886 L20551 47110" /> 
<path d="M20846 48603 L20550 47886" /> 
<path d="M21394 49152 L20846 48603" /> 
<path d="M22110 49449 L21394 49152" /> 
<path d="M22886 49450 L22110 49449" /> 
<path d="M23603 49154 L22886 49450" /> 
<path d="M24152 48606 L23603 49154" /> 
<path d="M24449 47890 L24152 48606" /> 
<path d="M24450 47114 L24449 47890" /> 
<path d="M24450 51801 L24450 47114" /> 
<path d="M20525 51801 L24450 51801" /> 
<path d="M20525 28199 L20525 51801" /> 
<path d="M24739 28199 L20525 28199" /> 
<path d="M24904 28131 L24739 28199" /> 
<path d="M25030 28005 L24904 28131" /> 
<path d="M25099 27840 L25030 28005" /> 
<path d="M25099 27750 L25099 27840" /> 
<path d="M29901 27750 L25099 27750" /> 
<path d="M29901 27839 L29901 27750" /> 
<path d="M29969 28004 L29901 27839" /> 
<path d="M30095 28130 L29969 28004" /> 
<path d="M30260 28199 L30095 28130" /> 
<path d="M30439 28199 L30260 28199" /> 
<path d="M34739 28199 L30439 28199" /> 
<path d="M34904 28131 L34739 28199" /> 
<path d="M35030 28005 L34904 28131" /> 
<path d="M35099 27840 L35030 28005" /> 
<path d="M35099 27750 L35099 27840" /> 
<path d="M39901 27750 L35099 27750" /> 
<path d="M39901 27839 L39901 27750" /> 
<path d="M39969 28004 L39901 27839" /> 
<path d="M40095 28130 L39969 28004" /> 
<path d="M40260 28199 L40095 28130" /> 
<path d="M40439 28199 L40260 28199" /> 
<path d="M44739 28199 L40439 28199" /> 
<path d="M44904 28131 L44739 28199" /> 
<path d="M45030 28005 L44904 28131" /> 
<path d="M45099 27840 L45030 28005" /> 
<path d="M45099 27750 L45099 27840" /> 
<path d="M49901 27750 L45099 27750" /> 
<path d="M49901 27839 L49901 27750" /> 
<path d="M49969 28004 L49901 27839" /> 
<path d="M50095 28130 L49969 28004" /> 
<path d="M50260 28199 L50095 28130" /> 
<path d="M50439 28199 L50260 28199" /> 
<path d="M54739 28199 L50439 28199" /> 
<path d="M54904 28131 L54739 28199" /> 
<path d="M55030 28005 L54904 28131" /> 
<path d="M55099 27840 L55030 28005" /> 
<path d="M55099 27750 L55099 27840" /> 
<path d="M59901 27750 L55099 27750" /> 
<path d="M59901 27839 L59901 27750" /> 
<path d="M59969 28004 L59901 27839" /> 
<path d="M60095 28130 L59969 28004" /> 
<path d="M60260 28199 L60095 28130" /> 
<path d="M60439 28199 L60260 28199" /> 
<path d="M64739 28199 L60439 28199" /> 
<path d="M64904 28131 L64739 28199" /> 
<path d="M65030 28005 L64904 28131" /> 
<path d="M65099 27840 L65030 28005" /> 
<path d="M65099 27750 L65099 27840" /> 
<path d="M69901 27750 L65099 27750" /> 
<path d="M69901 27839 L69901 27750" /> 
<path d="M69969 28004 L69901 27839" /> 
<path d="M70095 28130 L69969 28004" /> 
<path d="M70260 28199 L70095 28130" /> 
<path d="M70439 28199 L70260 28199" /> 
<path d="M74739 28199 L70439 28199" /> 
<path d="M74904 28131 L74739 28199" /> 
<path d="M75030 28005 L74904 28131" /> 
<path d="M75099 27840 L75030 28005" /> 
<path d="M75099 27750 L75099 27840" /> 
<path d="M79901 27750 L75099 27750" /> 
<path d="M79901 27839 L79901 27750" /> 
<path d="M79969 28004 L79901 27839" /> 
<path d="M80095 28130 L79969 28004" /> 
<path d="M80260 28199 L80095 28130" /> 
<path d="M80439 28199 L80260 28199" /> 
<path d="M84739 28199 L80439 28199" /> 
<path d="M84904 28131 L84739 28199" /> 
<path d="M85030 28005 L84904 28131" /> 
<path d="M85099 27840 L85030 28005" /> 
<path d="M85099 27750 L85099 27840" /> 
<path d="M89901 27750 L85099 27750" /> 
<path d="M89901 27839 L89901 27750" /> 
<path d="M89969 28004 L89901 27839" /> 
<path d="M90095 28130 L89969 28004" /> 
<path d="M90260 28199 L90095 28130" /> 
<path d="M90439 28199 L90260 28199" /> 
<path d="M94739 28199 L90439 28199" /> 
<path d="M94904 28131 L94739 28199" /> 
<path d="M95030 28005 L94904 28131" /> 
<path d="M95099 27840 L95030 28005" /> 
<path d="M95099 27750 L95099 27840" /> 
<path d="M99475 27750 L95099 27750" /> 
<path d="M99475 52250 L99475 27750" /> 
</g>
<g style="fill:#000000; fill-opacity:1.0; 
  stroke:#000000; stroke-linecap:round; stroke-linejoin:round; stroke-opacity:1.0; stroke-opacity:1.0; stroke-width:0" 
   transform="translate(0 0) scale(1 1)">
<polygon style="fill-rule:evenodd; " 
points="97372,32205
96160,31701
94847,31700
93634,32201
92705,33128
92201,34340
92200,35653
92701,36866
93628,37795
94840,38299
96153,38300
97366,37799
98295,36872
98799,35660
98800,34347
98800,52250
95099,52250
95099,52161
95031,51996
94905,51870
94740,51801
94561,51801
90261,51801
90096,51869
89970,51995
89901,52160
89901,52250
85099,52250
85099,52161
85031,51996
84905,51870
84740,51801
84561,51801
80261,51801
80096,51869
79970,51995
79901,52160
79901,52250
75099,52250
75099,52161
75031,51996
74905,51870
74740,51801
74561,51801
70261,51801
70096,51869
69970,51995
69901,52160
69901,52250
65099,52250
65099,52161
65031,51996
64905,51870
64740,51801
64561,51801
60261,51801
60096,51869
59970,51995
59901,52160
59901,52250
55099,52250
55099,52161
55031,51996
54905,51870
54740,51801
54561,51801
50261,51801
50096,51869
49970,51995
49901,52160
49901,52250
45099,52250
45099,52161
45031,51996
44905,51870
44740,51801
44561,51801
40261,51801
40096,51869
39970,51995
39901,52160
39901,52250
37850,52250
37850,44413
37850,35413
37630,34880
37222,34472
36690,34251
36113,34250
35580,34470
35172,34878
34951,35410
34950,35987
35170,36520
35578,36928
36110,37149
36687,37150
37220,36930
37628,36522
37849,35990
37850,35413
37850,44413
37630,43880
37222,43472
36690,43251
36113,43250
35580,43470
35172,43878
34951,44410
34950,44987
35170,45520
35578,45928
36110,46149
36687,46150
37220,45930
37628,45522
37849,44990
37850,44413
37850,52250
35099,52250
35099,52161
35031,51996
34905,51870
34740,51801
34561,51801
31950,51801
31950,39975
31949,39972
31950,39589
31802,39231
31802,39229
31800,39226
31654,38872
31380,38597
31379,38596
31377,38595
31106,38323
30748,38174
30746,38173
30742,38172
30390,38026
30002,38025
30000,38025
29614,38025
26799,38025
26799,32940
26799,32761
26799,32061
26731,31896
26605,31770
26440,31701
26261,31701
25561,31701
25396,31769
25270,31895
25201,32060
25201,32239
25201,32939
25269,33104
25395,33230
25560,33299
25739,33299
26439,33299
26604,33231
26730,33105
26799,32940
26799,38025
25808,38025
24475,36692
24475,32114
24179,31397
23631,30848
22915,30551
22139,30550
21422,30846
20873,31394
20576,32110
20575,32886
20871,33603
21419,34152
22135,34449
22911,34450
23628,34154
24177,33606
24474,32890
24475,32114
24475,36692
23904,36121
23827,36069
23606,35848
23317,35728
23272,35698
23219,35687
22890,35551
22527,35550
22525,35550
22522,35550
22500,35550
22497,35550
22114,35550
21756,35697
21754,35698
21751,35699
21397,35846
21122,36119
21121,36121
21120,36122
20848,36394
20699,36751
20698,36754
20697,36757
20551,37110
20550,37497
20550,37500
20550,37502
20550,37886
20697,38243
20698,38246
20699,38248
20846,38603
21119,38877
21121,38879
21122,38879
21394,39152
21436,39169
22242,39975
21146,41071
21044,41222
21044,41223
20873,41394
20780,41617
20779,41619
20723,41703
20703,41802
20703,41803
20576,42110
20575,42447
20575,42450
20575,42452
20575,42500
20575,42502
20575,42886
20722,43243
20723,43246
20724,43248
20871,43603
21144,43877
21146,43879
21147,43879
21419,44152
21776,44300
21779,44302
21782,44302
22135,44449
22522,44449
22525,44450
22527,44449
22911,44450
23268,44302
23271,44302
23273,44300
23628,44154
23902,43880
23904,43879
23904,43877
24177,43606
24212,43520
25808,41925
30000,41925
30002,41924
30386,41925
30743,41777
30746,41777
30748,41775
31103,41629
31377,41355
31379,41354
31379,41352
31652,41081
31800,40723
31802,40721
31802,40717
31949,40365
31949,39977
31950,39975
31950,51801
30261,51801
30096,51869
29970,51995
29901,52160
29901,52250
26799,52250
26799,47940
26799,47761
26799,47061
26731,46896
26605,46770
26440,46701
26261,46701
25561,46701
25396,46769
25270,46895
25201,47060
25201,47239
25201,47939
25269,48104
25395,48230
25560,48299
25739,48299
26439,48299
26604,48231
26730,48105
26799,47940
26799,52250
25099,52250
25099,52161
25031,51996
24905,51870
24740,51801
24561,51801
24450,51801
24450,47114
24154,46397
23606,45848
22890,45551
22114,45550
21397,45846
20848,46394
20551,47110
20550,47886
20846,48603
21394,49152
22110,49449
22886,49450
23603,49154
24152,48606
24449,47890
24450,47114
24450,51801
20525,51801
20525,28199
24739,28199
24904,28131
25030,28005
25099,27840
25099,27750
29901,27750
29901,27839
29969,28004
30095,28130
30260,28199
30439,28199
34739,28199
34904,28131
35030,28005
35099,27840
35099,27750
39901,27750
39901,27839
39969,28004
40095,28130
40260,28199
40439,28199
44739,28199
44904,28131
45030,28005
45099,27840
45099,27750
49901,27750
49901,27839
49969,28004
50095,28130
50260,28199
50439,28199
54739,28199
54904,28131
55030,28005
55099,27840
55099,27750
59901,27750
59901,27839
59969,28004
60095,28130
60260,28199
60439,28199
64739,28199
64904,28131
65030,28005
65099,27840
65099,27750
69901,27750
69901,27839
69969,28004
70095,28130
70260,28199
70439,28199
74739,28199
74904,28131
75030,28005
75099,27840
75099,27750
79901,27750
79901,27839
79969,28004
80095,28130
80260,28199
80439,28199
84739,28199
84904,28131
85030,28005
85099,27840
85099,27750
89901,27750
89901,27839
89969,28004
90095,28130
90260,28199
90439,28199
94739,28199
94904,28131
95030,28005
95099,27840
95099,27750
99475,27750
99475,52250
99475,52250
98800,52250
98800,34347
98299,33134
" /> 
<ellipse cx="95500" cy="35000" rx="2250" ry="2250"  /> 
</g>
<g style="fill:#FFFFFF; fill-opacity:1.0; 
  stroke:#808000; stroke-linecap:round; stroke-linejoin:round; stroke-opacity:1.0; stroke-opacity:1.0; stroke-width:0" 
   transform="translate(0 0) scale(1 1)">
<ellipse cx="95500" cy="35000" rx="1650" ry="1650"  /> 
</g>
<g style="fill:#000000; fill-opacity:1.0; 
  stroke:#000000; stroke-linecap:round; stroke-linejoin:round; stroke-opacity:1.0; stroke-opacity:1.0; stroke-width:0" 
   transform="translate(0 0) scale(1 1)">
<ellipse cx="95500" cy="45000" rx="2250" ry="2250"  /> 
</g>
<g style="fill:#FFFFFF; fill-opacity:1.0; 
  stroke:#808000; stroke-linecap:round; stroke-linejoin:round; stroke-opacity:1.0; stroke-opacity:1.0; stroke-width:0" 
   transform="translate(0 0) scale(1 1)">
<ellipse cx="95500" cy="45000" rx="1650" ry="1650"  /> 
</g>
<g style="fill:#000000; fill-opacity:1.0; 
  stroke:#000000; stroke-linecap:round; stroke-linejoin:round; stroke-opacity:1.0; stroke-opacity:1.0; stroke-width:0" 
   transform="translate(0 0) scale(1 1)">
<ellipse cx="35000" cy="40000" rx="1500" ry="1500"  /> 
</g>
<g style="fill:#FFFFFF; fill-opacity:1.0; 
  stroke:#808000; stroke-linecap:round; stroke-linejoin:round; stroke-opacity:1.0; stroke-opacity:1.0; stroke-width:0" 
   transform="translate(0 0) scale(1 1)">
<ellipse cx="35000" cy="40000" rx="865" ry="865"  /> 
</g>
<g style="fill:#000000; fill-opacity:1.0; 
  stroke:#000000; stroke-linecap:round; stroke-linejoin:round; stroke-opacity:1.0; stroke-opacity:1.0; stroke-width:0" 
   transform="translate(0 0) scale(1 1)">
<ellipse cx="30000" cy="39975" rx="1500" ry="1500"  /> 
</g>
<g style="fill:#FFFFFF; fill-opacity:1.0; 
  stroke:#808000; stroke-linecap:round; stroke-linejoin:round; stroke-opacity:1.0; stroke-opacity:1.0; stroke-width:0" 
   transform="translate(0 0) scale(1 1)">
<ellipse cx="30000" cy="39975" rx="865" ry="865"  /> 
</g>
<g style="fill:#000000; fill-opacity:1.0; 
  stroke:#000000; stroke-linecap:round; stroke-linejoin:round; stroke-opacity:1.0; stroke-opacity:1.0; stroke-width:0" 
   transform="translate(0 0) scale(1 1)">
<ellipse cx="22500" cy="37500" rx="1500" ry="1500"  /> 
</g>
<g style="fill:#FFFFFF; fill-opacity:1.0; 
  stroke:#808000; stroke-linecap:round; stroke-linejoin:round; stroke-opacity:1.0; stroke-opacity:1.0; stroke-width:0" 
   transform="translate(0 0) scale(1 1)">
<ellipse cx="22500" cy="37500" rx="865" ry="865"  /> 
</g>
<g style="fill:#000000; fill-opacity:1.0; 
  stroke:#000000; stroke-linecap:round; stroke-linejoin:round; stroke-opacity:1.0; stroke-opacity:1.0; stroke-width:0" 
   transform="translate(0 0) scale(1 1)">
<ellipse cx="22525" cy="32500" rx="1500" ry="1500"  /> 
</g>
<g style="fill:#FFFFFF; fill-opacity:1.0; 
  stroke:#808000; stroke-linecap:round; stroke-linejoin:round; stroke-opacity:1.0; stroke-opacity:1.0; stroke-width:0" 
   transform="translate(0 0) scale(1 1)">
<ellipse cx="22525" cy="32500" rx="865" ry="865"  /> 
</g>
<g style="fill:#000000; fill-opacity:1.0; 
  stroke:#000000; stroke-linecap:round; stroke-linejoin:round; stroke-opacity:1.0; stroke-opacity:1.0; stroke-width:0" 
   transform="translate(0 0) scale(1 1)">
<ellipse cx="22500" cy="47500" rx="1500" ry="1500"  /> 
</g>
<g style="fill:#FFFFFF; fill-opacity:1.0; 
  stroke:#808000; stroke-linecap:round; stroke-linejoin:round; stroke-opacity:1.0; stroke-opacity:1.0; stroke-width:0" 
   transform="translate(0 0) scale(1 1)">
<ellipse cx="22500" cy="47500" rx="865" ry="865"  /> 
</g>
<g style="fill:#000000; fill-opacity:1.0; 
  stroke:#000000; stroke-linecap:round; stroke-linejoin:round; stroke-opacity:1.0; stroke-opacity:1.0; stroke-width:0" 
   transform="translate(0 0) scale(1 1)">
<ellipse cx="22525" cy="42500" rx="1500" ry="1500"  /> 
</g>
<g style="fill:#FFFFFF; fill-opacity:1.0; 
  stroke:#808000; stroke-linecap:round; stroke-linejoin:round; stroke-opacity:1.0; stroke-opacity:1.0; stroke-width:0" 
   transform="translate(0 0) scale(1 1)">
<ellipse cx="22525" cy="42500" rx="865" ry="865"  /> 
</g>
<g style="fill:#000000; fill-opacity:1.0; 
  stroke:#000000; stroke-linecap:round; stroke-linejoin:round; stroke-opacity:1.0; stroke-opacity:1.0; stroke-width:0" 
   transform="translate(0 0) scale(1 1)">
<polygon style="fill-rule:evenodd; " 
points="20350,27750
20350,20250
24650,20250
24650,27750
" /> 
</g>
<g style="fill:#FFFFFF; fill-opacity:1.0; 
  stroke:#808000; stroke-linecap:round; stroke-linejoin:round; stroke-opacity:1.0; stroke-opacity:1.0; stroke-width:0" 
   transform="translate(0 0) scale(1 1)">
<ellipse cx="22500" cy="24000" rx="865" ry="865"  /> 
</g>
<g style="fill:#000000; fill-opacity:1.0; 
  stroke:#000000; stroke-linecap:round; stroke-linejoin:round; stroke-opacity:1.0; stroke-opacity:1.0; stroke-width:0" 
   transform="translate(0 0) scale(1 1)">
<polygon style="fill-rule:evenodd; " 
points="25350,27750
25350,20250
29650,20250
29650,27750
" /> 
</g>
<g style="fill:#FFFFFF; fill-opacity:1.0; 
  stroke:#808000; stroke-linecap:round; stroke-linejoin:round; stroke-opacity:1.0; stroke-opacity:1.0; stroke-width:0" 
   transform="translate(0 0) scale(1 1)">
<ellipse cx="27500" cy="24000" rx="865" ry="865"  /> 
</g>
<g style="fill:#000000; fill-opacity:1.0; 
  stroke:#000000; stroke-linecap:round; stroke-linejoin:round; stroke-opacity:1.0; stroke-opacity:1.0; stroke-width:0" 
   transform="translate(0 0) scale(1 1)">
<polygon style="fill-rule:evenodd; " 
points="30350,27750
30350,20250
34650,20250
34650,27750
" /> 
</g>
<g style="fill:#FFFFFF; fill-opacity:1.0; 
  stroke:#808000; stroke-linecap:round; stroke-linejoin:round; stroke-opacity:1.0; stroke-opacity:1.0; stroke-width:0" 
   transform="translate(0 0) scale(1 1)">
<ellipse cx="32500" cy="24000" rx="865" ry="865"  /> 
</g>
<g style="fill:#000000; fill-opacity:1.0; 
  stroke:#000000; stroke-linecap:round; stroke-linejoin:round; stroke-opacity:1.0; stroke-opacity:1.0; stroke-width:0" 
   transform="translate(0 0) scale(1 1)">
<polygon style="fill-rule:evenodd; " 
points="35350,27750
35350,20250
39650,20250
39650,27750
" /> 
</g>
<g style="fill:#FFFFFF; fill-opacity:1.0; 
  stroke:#808000; stroke-linecap:round; stroke-linejoin:round; stroke-opacity:1.0; stroke-opacity:1.0; stroke-width:0" 
   transform="translate(0 0) scale(1 1)">
<ellipse cx="37500" cy="24000" rx="865" ry="865"  /> 
</g>
<g style="fill:#000000; fill-opacity:1.0; 
  stroke:#000000; stroke-linecap:round; stroke-linejoin:round; stroke-opacity:1.0; stroke-opacity:1.0; stroke-width:0" 
   transform="translate(0 0) scale(1 1)">
<polygon style="fill-rule:evenodd; " 
points="40350,27750
40350,20250
44650,20250
44650,27750
" /> 
</g>
<g style="fill:#FFFFFF; fill-opacity:1.0; 
  stroke:#808000; stroke-linecap:round; stroke-linejoin:round; stroke-opacity:1.0; stroke-opacity:1.0; stroke-width:0" 
   transform="translate(0 0) scale(1 1)">
<ellipse cx="42500" cy="24000" rx="865" ry="865"  /> 
</g>
<g style="fill:#000000; fill-opacity:1.0; 
  stroke:#000000; stroke-linecap:round; stroke-linejoin:round; stroke-opacity:1.0; stroke-opacity:1.0; stroke-width:0" 
   transform="translate(0 0) scale(1 1)">
<polygon style="fill-rule:evenodd; " 
points="45350,27750
45350,20250
49650,20250
49650,27750
" /> 
</g>
<g style="fill:#FFFFFF; fill-opacity:1.0; 
  stroke:#808000; stroke-linecap:round; stroke-linejoin:round; stroke-opacity:1.0; stroke-opacity:1.0; stroke-width:0" 
   transform="translate(0 0) scale(1 1)">
<ellipse cx="47500" cy="24000" rx="865" ry="865"  /> 
</g>
<g style="fill:#000000; fill-opacity:1.0; 
  stroke:#000000; stroke-linecap:round; stroke-linejoin:round; stroke-opacity:1.0; stroke-opacity:1.0; stroke-width:0" 
   transform="translate(0 0) scale(1 1)">
<polygon style="fill-rule:evenodd; " 
points="50350,27750
50350,20250
54650,20250
54650,27750
" /> 
</g>
<g style="fill:#FFFFFF; fill-opacity:1.0; 
  stroke:#808000; stroke-linecap:round; stroke-linejoin:round; stroke-opacity:1.0; stroke-opacity:1.0; stroke-width:0" 
   transform="translate(0 0) scale(1 1)">
<ellipse cx="52500" cy="24000" rx="865" ry="865"  /> 
</g>
<g style="fill:#000000; fill-opacity:1.0; 
  stroke:#000000; stroke-linecap:round; stroke-linejoin:round; stroke-opacity:1.0; stroke-opacity:1.0; stroke-width:0" 
   transform="translate(0 0) scale(1 1)">
<polygon style="fill-rule:evenodd; " 
points="55350,27750
55350,20250
59650,20250
59650,27750
" /> 
</g>
<g style="fill:#FFFFFF; fill-opacity:1.0; 
  stroke:#808000; stroke-linecap:round; stroke-linejoin:round; stroke-opacity:1.0; stroke-opacity:1.0; stroke-width:0" 
   transform="translate(0 0) scale(1 1)">
<ellipse cx="57500" cy="24000" rx="865" ry="865"  /> 
</g>
<g style="fill:#000000; fill-opacity:1.0; 
  stroke:#000000; stroke-linecap:round; stroke-linejoin:round; stroke-opacity:1.0; stroke-opacity:1.0; stroke-width:0" 
   transform="translate(0 0) scale(1 1)">
<polygon style="fill-rule:evenodd; " 
points="60350,27750
60350,20250
64650,20250
64650,27750
" /> 
</g>
<g style="fill:#FFFFFF; fill-opacity:1.0; 
  stroke:#808000; stroke-linecap:round; stroke-linejoin:round; stroke-opacity:1.0; stroke-opacity:1.0; stroke-width:0" 
   transform="translate(0 0) scale(1 1)">
<ellipse cx="62500" cy="24000" rx="865" ry="865"  /> 
</g>
<g style="fill:#000000; fill-opacity:1.0; 
  stroke:#000000; stroke-linecap:round; stroke-linejoin:round; stroke-opacity:1.0; stroke-opacity:1.0; stroke-width:0" 
   transform="translate(0 0) scale(1 1)">
<polygon style="fill-rule:evenodd; " 
points="65350,27750
65350,20250
69650,20250
69650,27750
" /> 
</g>
<g style="fill:#FFFFFF; fill-opacity:1.0; 
  stroke:#808000; stroke-linecap:round; stroke-linejoin:round; stroke-opacity:1.0; stroke-opacity:1.0; stroke-width:0" 
   transform="translate(0 0) scale(1 1)">
<ellipse cx="67500" cy="24000" rx="865" ry="865"  /> 
</g>
<g style="fill:#000000; fill-opacity:1.0; 
  stroke:#000000; stroke-linecap:round; stroke-linejoin:round; stroke-opacity:1.0; stroke-opacity:1.0; stroke-width:0" 
   transform="translate(0 0) scale(1 1)">
<polygon style="fill-rule:evenodd; " 
points="70350,27750
70350,20250
74650,20250
74650,27750
" /> 
</g>
<g style="fill:#FFFFFF; fill-opacity:1.0; 
  stroke:#808000; stroke-linecap:round; stroke-linejoin:round; stroke-opacity:1.0; stroke-opacity:1.0; stroke-width:0" 
   transform="translate(0 0) scale(1 1)">
<ellipse cx="72500" cy="24000" rx="865" ry="865"  /> 
</g>
<g style="fill:#000000; fill-opacity:1.0; 
  stroke:#000000; stroke-linecap:round; stroke-linejoin:round; stroke-opacity:1.0; stroke-opacity:1.0; stroke-width:0" 
   transform="translate(0 0) scale(1 1)">
<polygon style="fill-rule:evenodd; " 
points="75350,27750
75350,20250
79650,20250
79650,27750
" /> 
</g>
<g style="fill:#FFFFFF; fill-opacity:1.0; 
  stroke:#808000; stroke-linecap:round; stroke-linejoin:round; stroke-opacity:1.0; stroke-opacity:1.0; stroke-width:0" 
   transform="translate(0 0) scale(1 1)">
<ellipse cx="77500" cy="24000" rx="865" ry="865"  /> 
</g>
<g style="fill:#000000; fill-opacity:1.0; 
  stroke:#000000; stroke-linecap:round; stroke-linejoin:round; stroke-opacity:1.0; stroke-opacity:1.0; stroke-width:0" 
   transform="translate(0 0) scale(1 1)">
<polygon style="fill-rule:evenodd; " 
points="80350,27750
80350,20250
84650,20250
84650,27750
" /> 
</g>
<g style="fill:#FFFFFF; fill-opacity:1.0; 
  stroke:#808000; stroke-linecap:round; stroke-linejoin:round; stroke-opacity:1.0; stroke-opacity:1.0; stroke-width:0" 
   transform="translate(0 0) scale(1 1)">
<ellipse cx="82500" cy="24000" rx="865" ry="865"  /> 
</g>
<g style="fill:#000000; fill-opacity:1.0; 
  stroke:#000000; stroke-linecap:round; stroke-linejoin:round; stroke-opacity:1.0; stroke-opacity:1.0; stroke-width:0" 
   transform="translate(0 0) scale(1 1)">
<polygon style="fill-rule:evenodd; " 
points="85350,27750
85350,20250
89650,20250
89650,27750
" /> 
</g>
<g style="fill:#FFFFFF; fill-opacity:1.0; 
  stroke:#808000; stroke-linecap:round; stroke-linejoin:round; stroke-opacity:1.0; stroke-opacity:1.0; stroke-width:0" 
   transform="translate(0 0) scale(1 1)">
<ellipse cx="87500" cy="24000" rx="865" ry="865"  /> 
</g>
<g style="fill:#000000; fill-opacity:1.0; 
  stroke:#000000; stroke-linecap:round; stroke-linejoin:round; stroke-opacity:1.0; stroke-opacity:1.0; stroke-width:0" 
   transform="translate(0 0) scale(1 1)">
<polygon style="fill-rule:evenodd; " 
points="90350,27750
90350,20250
94650,20250
94650,27750
" /> 
</g>
<g style="fill:#FFFFFF; fill-opacity:1.0; 
  stroke:#808000; stroke-linecap:round; stroke-linejoin:round; stroke-opacity:1.0; stroke-opacity:1.0; stroke-width:0" 
   transform="translate(0 0) scale(1 1)">
<ellipse cx="92500" cy="24000" rx="865" ry="865"  /> 
</g>
<g style="fill:#000000; fill-opacity:1.0; 
  stroke:#000000; stroke-linecap:round; stroke-linejoin:round; stroke-opacity:1.0; stroke-opacity:1.0; stroke-width:0" 
   transform="translate(0 0) scale(1 1)">
<polygon style="fill-rule:evenodd; " 
points="95350,27750
95350,20250
99650,20250
99650,27750
" /> 
</g>
<g style="fill:#FFFFFF; fill-opacity:1.0; 
  stroke:#808000; stroke-linecap:round; stroke-linejoin:round; stroke-opacity:1.0; stroke-opacity:1.0; stroke-width:0" 
   transform="translate(0 0) scale(1 1)">
<ellipse cx="97500" cy="24000" rx="865" ry="865"  /> 
</g>
<g style="fill:#000000; fill-opacity:1.0; 
  stroke:#000000; stroke-linecap:round; stroke-linejoin:round; stroke-opacity:1.0; stroke-opacity:1.0; stroke-width:0" 
   transform="translate(0 0) scale(1 1)">
<polygon style="fill-rule:evenodd; " 
points="20350,59750
20350,52250
24650,52250
24650,59750
" /> 
</g>
<g style="fill:#FFFFFF; fill-opacity:1.0; 
  stroke:#808000; stroke-linecap:round; stroke-linejoin:round; stroke-opacity:1.0; stroke-opacity:1.0; stroke-width:0" 
   transform="translate(0 0) scale(1 1)">
<ellipse cx="22500" cy="56000" rx="865" ry="865"  /> 
</g>
<g style="fill:#000000; fill-opacity:1.0; 
  stroke:#000000; stroke-linecap:round; stroke-linejoin:round; stroke-opacity:1.0; stroke-opacity:1.0; stroke-width:0" 
   transform="translate(0 0) scale(1 1)">
<polygon style="fill-rule:evenodd; " 
points="25350,59750
25350,52250
29650,52250
29650,59750
" /> 
</g>
<g style="fill:#FFFFFF; fill-opacity:1.0; 
  stroke:#808000; stroke-linecap:round; stroke-linejoin:round; stroke-opacity:1.0; stroke-opacity:1.0; stroke-width:0" 
   transform="translate(0 0) scale(1 1)">
<ellipse cx="27500" cy="56000" rx="865" ry="865"  /> 
</g>
<g style="fill:#000000; fill-opacity:1.0; 
  stroke:#000000; stroke-linecap:round; stroke-linejoin:round; stroke-opacity:1.0; stroke-opacity:1.0; stroke-width:0" 
   transform="translate(0 0) scale(1 1)">
<polygon style="fill-rule:evenodd; " 
points="30350,59750
30350,52250
34650,52250
34650,59750
" /> 
</g>
<g style="fill:#FFFFFF; fill-opacity:1.0; 
  stroke:#808000; stroke-linecap:round; stroke-linejoin:round; stroke-opacity:1.0; stroke-opacity:1.0; stroke-width:0" 
   transform="translate(0 0) scale(1 1)">
<ellipse cx="32500" cy="56000" rx="865" ry="865"  /> 
</g>
<g style="fill:#000000; fill-opacity:1.0; 
  stroke:#000000; stroke-linecap:round; stroke-linejoin:round; stroke-opacity:1.0; stroke-opacity:1.0; stroke-width:0" 
   transform="translate(0 0) scale(1 1)">
<polygon style="fill-rule:evenodd; " 
points="35350,59750
35350,52250
39650,52250
39650,59750
" /> 
</g>
<g style="fill:#FFFFFF; fill-opacity:1.0; 
  stroke:#808000; stroke-linecap:round; stroke-linejoin:round; stroke-opacity:1.0; stroke-opacity:1.0; stroke-width:0" 
   transform="translate(0 0) scale(1 1)">
<ellipse cx="37500" cy="56000" rx="865" ry="865"  /> 
</g>
<g style="fill:#000000; fill-opacity:1.0; 
  stroke:#000000; stroke-linecap:round; stroke-linejoin:round; stroke-opacity:1.0; stroke-opacity:1.0; stroke-width:0" 
   transform="translate(0 0) scale(1 1)">
<polygon style="fill-rule:evenodd; " 
points="40350,59750
40350,52250
44650,52250
44650,59750
" /> 
</g>
<g style="fill:#FFFFFF; fill-opacity:1.0; 
  stroke:#808000; stroke-linecap:round; stroke-linejoin:round; stroke-opacity:1.0; stroke-opacity:1.0; stroke-width:0" 
   transform="translate(0 0) scale(1 1)">
<ellipse cx="42500" cy="56000" rx="865" ry="865"  /> 
</g>
<g style="fill:#000000; fill-opacity:1.0; 
  stroke:#000000; stroke-linecap:round; stroke-linejoin:round; stroke-opacity:1.0; stroke-opacity:1.0; stroke-width:0" 
   transform="translate(0 0) scale(1 1)">
<polygon style="fill-rule:evenodd; " 
points="45350,59750
45350,52250
49650,52250
49650,59750
" /> 
</g>
<g style="fill:#FFFFFF; fill-opacity:1.0; 
  stroke:#808000; stroke-linecap:round; stroke-linejoin:round; stroke-opacity:1.0; stroke-opacity:1.0; stroke-width:0" 
   transform="translate(0 0) scale(1 1)">
<ellipse cx="47500" cy="56000" rx="865" ry="865"  /> 
</g>
<g style="fill:#000000; fill-opacity:1.0; 
  stroke:#000000; stroke-linecap:round; stroke-linejoin:round; stroke-opacity:1.0; stroke-opacity:1.0; stroke-width:0" 
   transform="translate(0 0) scale(1 1)">
<polygon style="fill-rule:evenodd; " 
points="50350,59750
50350,52250
54650,52250
54650,59750
" /> 
</g>
<g style="fill:#FFFFFF; fill-opacity:1.0; 
  stroke:#808000; stroke-linecap:round; stroke-linejoin:round; stroke-opacity:1.0; stroke-opacity:1.0; stroke-width:0" 
   transform="translate(0 0) scale(1 1)">
<ellipse cx="52500" cy="56000" rx="865" ry="865"  /> 
</g>
<g style="fill:#000000; fill-opacity:1.0; 
  stroke:#000000; stroke-linecap:round; stroke-linejoin:round; stroke-opacity:1.0; stroke-opacity:1.0; stroke-width:0" 
   transform="translate(0 0) scale(1 1)">
<polygon style="fill-rule:evenodd; " 
points="55350,59750
55350,52250
59650,52250
59650,59750
" /> 
</g>
<g style="fill:#FFFFFF; fill-opacity:1.0; 
  stroke:#808000; stroke-linecap:round; stroke-linejoin:round; stroke-opacity:1.0; stroke-opacity:1.0; stroke-width:0" 
   transform="translate(0 0) scale(1 1)">
<ellipse cx="57500" cy="56000" rx="865" ry="865"  /> 
</g>
<g style="fill:#000000; fill-opacity:1.0; 
  stroke:#000000; stroke-linecap:round; stroke-linejoin:round; stroke-opacity:1.0; stroke-opacity:1.0; stroke-width:0" 
   transform="translate(0 0) scale(1 1)">
<polygon style="fill-rule:evenodd; " 
points="60350,59750
60350,52250
64650,52250
64650,59750
" /> 
</g>
<g style="fill:#FFFFFF; fill-opacity:1.0; 
  stroke:#808000; stroke-linecap:round; stroke-linejoin:round; stroke-opacity:1.0; stroke-opacity:1.0; stroke-width:0" 
   transform="translate(0 0) scale(1 1)">
<ellipse cx="62500" cy="56000" rx="865" ry="865"  /> 
</g>
<g style="fill:#000000; fill-opacity:1.0; 
  stroke:#000000; stroke-linecap:round; stroke-linejoin:round; stroke-opacity:1.0; stroke-opacity:1.0; stroke-width:0" 
   transform="translate(0 0) scale(1 1)">
<polygon style="fill-rule:evenodd; " 
points="65350,59750
65350,52250
69650,52250
69650,59750
" /> 
</g>
<g style="fill:#FFFFFF; fill-opacity:1.0; 
  stroke:#808000; stroke-linecap:round; stroke-linejoin:round; stroke-opacity:1.0; stroke-opacity:1.0; stroke-width:0" 
   transform="translate(0 0) scale(1 1)">
<ellipse cx="67500" cy="56000" rx="865" ry="865"  /> 
</g>
<g style="fill:#000000; fill-opacity:1.0; 
  stroke:#000000; stroke-linecap:round; stroke-linejoin:round; stroke-opacity:1.0; stroke-opacity:1.0; stroke-width:0" 
   transform="translate(0 0) scale(1 1)">
<polygon style="fill-rule:evenodd; " 
points="70350,59750
70350,52250
74650,52250
74650,59750
" /> 
</g>
<g style="fill:#FFFFFF; fill-opacity:1.0; 
  stroke:#808000; stroke-linecap:round; stroke-linejoin:round; stroke-opacity:1.0; stroke-opacity:1.0; stroke-width:0" 
   transform="translate(0 0) scale(1 1)">
<ellipse cx="72500" cy="56000" rx="865" ry="865"  /> 
</g>
<g style="fill:#000000; fill-opacity:1.0; 
  stroke:#000000; stroke-linecap:round; stroke-linejoin:round; stroke-opacity:1.0; stroke-opacity:1.0; stroke-width:0" 
   transform="translate(0 0) scale(1 1)">
<polygon style="fill-rule:evenodd; " 
points="75350,59750
75350,52250
79650,52250
79650,59750
" /> 
</g>
<g style="fill:#FFFFFF; fill-opacity:1.0; 
  stroke:#808000; stroke-linecap:round; stroke-linejoin:round; stroke-opacity:1.0; stroke-opacity:1.0; stroke-width:0" 
   transform="translate(0 0) scale(1 1)">
<ellipse cx="77500" cy="56000" rx="865" ry="865"  /> 
</g>
<g style="fill:#000000; fill-opacity:1.0; 
  stroke:#000000; stroke-linecap:round; stroke-linejoin:round; stroke-opacity:1.0; stroke-opacity:1.0; stroke-width:0" 
   transform="translate(0 0) scale(1 1)">
<polygon style="fill-rule:evenodd; " 
points="80350,59750
80350,52250
84650,52250
84650,59750
" /> 
</g>
<g style="fill:#FFFFFF; fill-opacity:1.0; 
  stroke:#808000; stroke-linecap:round; stroke-linejoin:round; stroke-opacity:1.0; stroke-opacity:1.0; stroke-width:0" 
   transform="translate(0 0) scale(1 1)">
<ellipse cx="82500" cy="56000" rx="865" ry="865"  /> 
</g>
<g style="fill:#000000; fill-opacity:1.0; 
  stroke:#000000; stroke-linecap:round; stroke-linejoin:round; stroke-opacity:1.0; stroke-opacity:1.0; stroke-width:0" 
   transform="translate(0 0) scale(1 1)">
<polygon style="fill-rule:evenodd; " 
points="85350,59750
85350,52250
89650,52250
89650,59750
" /> 
</g>
<g style="fill:#FFFFFF; fill-opacity:1.0; 
  stroke:#808000; stroke-linecap:round; stroke-linejoin:round; stroke-opacity:1.0; stroke-opacity:1.0; stroke-width:0" 
   transform="translate(0 0) scale(1 1)">
<ellipse cx="87500" cy="56000" rx="865" ry="865"  /> 
</g>
<g style="fill:#000000; fill-opacity:1.0; 
  stroke:#000000; stroke-linecap:round; stroke-linejoin:round; stroke-opacity:1.0; stroke-opacity:1.0; stroke-width:0" 
   transform="translate(0 0) scale(1 1)">
<polygon style="fill-rule:evenodd; " 
points="90350,59750
90350,52250
94650,52250
94650,59750
" /> 
</g>
<g style="fill:#FFFFFF; fill-opacity:1.0; 
  stroke:#808000; stroke-linecap:round; stroke-linejoin:round; stroke-opacity:1.0; stroke-opacity:1.0; stroke-width:0" 
   transform="translate(0 0) scale(1 1)">
<ellipse cx="92500" cy="56000" rx="865" ry="865"  /> 
</g>
<g style="fill:#000000; fill-opacity:1.0; 
  stroke:#000000; stroke-linecap:round; stroke-linejoin:round; stroke-opacity:1.0; stroke-opacity:1.0; stroke-width:0" 
   transform="translate(0 0) scale(1 1)">
<polygon style="fill-rule:evenodd; " 
points="95350,59750
95350,52250
99650,52250
99650,59750
" /> 
</g>
<g style="fill:#FFFFFF; fill-opacity:1.0; 
  stroke:#808000; stroke-linecap:round; stroke-linejoin:round; stroke-opacity:1.0; stroke-opacity:1.0; stroke-width:0" 
   transform="translate(0 0) scale(1 1)">
<ellipse cx="97500" cy="56000" rx="865" ry="865"  /> 
</g>
<g style="fill:#000000; fill-opacity:1.0; 
  stroke:#000000; stroke-linecap:round; stroke-linejoin:round; stroke-opacity:1.0; stroke-opacity:1.0; stroke-width:0" 
   transform="translate(0 0) scale(1 1)">
<ellipse cx="26000" cy="37500" rx="350" ry="350"  /> 
</g>
<g style="fill:#FFFFFF; fill-opacity:1.0; 
  stroke:#808000; stroke-linecap:round; stroke-linejoin:round; stroke-opacity:1.0; stroke-opacity:1.0; stroke-width:0" 
   transform="translate(0 0) scale(1 1)">
<ellipse cx="26000" cy="37500" rx="225" ry="225"  /> 
</g>
<g style="fill:#000000; fill-opacity:1.0; 
  stroke:#000000; stroke-linecap:round; stroke-linejoin:round; stroke-opacity:1.0; stroke-opacity:1.0; stroke-width:0" 
   transform="translate(0 0) scale(1 1)">
<polygon style="fill-rule:evenodd; " 
points="26350,32850
25650,32850
25650,32150
26350,32150
" /> 
</g>
<g style="fill:#FFFFFF; fill-opacity:1.0; 
  stroke:#808000; stroke-linecap:round; stroke-linejoin:round; stroke-opacity:1.0; stroke-opacity:1.0; stroke-width:0" 
   transform="translate(0 0) scale(1 1)">
<ellipse cx="26000" cy="32500" rx="225" ry="225"  /> 
</g>
<g style="fill:#000000; fill-opacity:1.0; 
  stroke:#000000; stroke-linecap:round; stroke-linejoin:round; stroke-opacity:1.0; stroke-opacity:1.0; stroke-width:0" 
   transform="translate(0 0) scale(1 1)">
<ellipse cx="26000" cy="42500" rx="350" ry="350"  /> 
</g>
<g style="fill:#FFFFFF; fill-opacity:1.0; 
  stroke:#808000; stroke-linecap:round; stroke-linejoin:round; stroke-opacity:1.0; stroke-opacity:1.0; stroke-width:0" 
   transform="translate(0 0) scale(1 1)">
<ellipse cx="26000" cy="42500" rx="225" ry="225"  /> 
</g>
<g style="fill:#000000; fill-opacity:1.0; 
  stroke:#000000; stroke-linecap:round; stroke-linejoin:round; stroke-opacity:1.0; stroke-opacity:1.0; stroke-width:0" 
   transform="translate(0 0) scale(1 1)">
<polygon style="fill-rule:evenodd; " 
points="25650,47150
26350,47150
26350,47850
25650,47850
" /> 
</g>
<g style="fill:#FFFFFF; fill-opacity:1.0; 
  stroke:#808000; stroke-linecap:round; stroke-linejoin:round; stroke-opacity:1.0; stroke-opacity:1.0; stroke-width:0" 
   transform="translate(0 0) scale(1 1)">
<ellipse cx="26000" cy="47500" rx="225" ry="225"  /> 
</g>
<g style="fill:#000000; fill-opacity:1.0; 
  stroke:#000000; stroke-linecap:round; stroke-linejoin:round; stroke-opacity:1.0; stroke-opacity:1.0; stroke-width:0" 
   transform="translate(0 0) scale(1 1)">
<polygon style="fill-rule:evenodd; " 
points="44900,32200
44900,39200
37900,39200
37900,32200
" /> 
</g>
<g style="fill:#FFFFFF; fill-opacity:1.0; 
  stroke:#808000; stroke-linecap:round; stroke-linejoin:round; stroke-opacity:1.0; stroke-opacity:1.0; stroke-width:0" 
   transform="translate(0 0) scale(1 1)">
<ellipse cx="41400" cy="35700" rx="1750" ry="1750"  /> 
</g>
<g style="fill:#000000; fill-opacity:1.0; 
  stroke:#000000; stroke-linecap:round; stroke-linejoin:round; stroke-opacity:1.0; stroke-opacity:1.0; stroke-width:0" 
   transform="translate(0 0) scale(1 1)">
<ellipse cx="36400" cy="35700" rx="1000" ry="1000"  /> 
</g>
<g style="fill:#FFFFFF; fill-opacity:1.0; 
  stroke:#808000; stroke-linecap:round; stroke-linejoin:round; stroke-opacity:1.0; stroke-opacity:1.0; stroke-width:0" 
   transform="translate(0 0) scale(1 1)">
<ellipse cx="36400" cy="35700" rx="500" ry="500"  /> 
</g>
<g style="fill:#000000; fill-opacity:1.0; 
  stroke:#000000; stroke-linecap:round; stroke-linejoin:round; stroke-opacity:1.0; stroke-opacity:1.0; stroke-width:0" 
   transform="translate(0 0) scale(1 1)">
<polygon style="fill-rule:evenodd; " 
points="44900,41200
44900,48200
37900,48200
37900,41200
" /> 
</g>
<g style="fill:#FFFFFF; fill-opacity:1.0; 
  stroke:#808000; stroke-linecap:round; stroke-linejoin:round; stroke-opacity:1.0; stroke-opacity:1.0; stroke-width:0" 
   transform="translate(0 0) scale(1 1)">
<ellipse cx="41400" cy="44700" rx="1750" ry="1750"  /> 
</g>
<g style="fill:#000000; fill-opacity:1.0; 
  stroke:#000000; stroke-linecap:round; stroke-linejoin:round; stroke-opacity:1.0; stroke-opacity:1.0; stroke-width:0" 
   transform="translate(0 0) scale(1 1)">
<ellipse cx="36400" cy="44700" rx="1000" ry="1000"  /> 
</g>
<g style="fill:#FFFFFF; fill-opacity:1.0; 
  stroke:#808000; stroke-linecap:round; stroke-linejoin:round; stroke-opacity:1.0; stroke-opacity:1.0; stroke-width:0" 
   transform="translate(0 0) scale(1 1)">
<ellipse cx="36400" cy="44700" rx="500" ry="500"  /> 
</g>
<g style="fill:#FFFFFF; fill-opacity:1.0; 
  stroke:#FFFFFF; stroke-linecap:round; stroke-linejoin:round; stroke-opacity:1.0; stroke-opacity:1.0; stroke-width:0" 
   transform="translate(0 0) scale(1 1)">
<ellipse cx="22525" cy="32500" rx="125" ry="125"  /> 
</g> 
</svg> 
