<?xml version="1.0" standalone="no"?>
<!DOCTYPE svg PUBLIC "-//W3C//DTD SVG 1.1//EN" 
"http://www.w3.org/Graphics/SVG/1.1/DTD/svg11.dtd"> 
<svg
  xmlns="http://www.w3.org/2000/svg"
  version="1.1"
  width="11.7in" height="8.267in" viewBox="0 0 117000 82670 "
>
  <title>SVG Picture created as TS Electrical System-Back.svg </title>
  <desc>Picture generated by wxSVG v0101 </desc>
  <g style="fill:black; stroke:black; stroke-width:1">
</g>
<g style="fill:#000000; fill-opacity:0.0; 
  stroke:#000000; stroke-linecap:round; stroke-linejoin:round; stroke-opacity:1.0; stroke-opacity:1.0; stroke-width:150" 
   transform="translate(0 0) scale(1 1)">
<path d="M81300 11500 L82200 11500" /> 
<path d="M76600 6800 L81300 11500" /> 
<path d="M76600 10400 L76600 6800" /> 
<path d="M89300 10400 L76600 10400" /> 
<path d="M84900 14800 L89300 10400" /> 
<path d="M84900 7700 L84900 14800" /> 
<path d="M95700 65700 L95700 63200" /> 
<path d="M86600 65700 L95700 65700" /> 
<path d="M92100 71200 L86600 65700" /> 
<path d="M92100 61300 L92100 71200" /> 
<path d="M105800 40300 L105800 40000" /> 
<path d="M109600 44100 L105800 40300" /> 
<path d="M102700 44100 L109600 44100" /> 
<path d="M105900 50900 L106600 50900" /> 
<path d="M105900 36700 L105900 50900" /> 
<path d="M55500 12300 L55500 11200" /> 
<path d="M64000 12300 L55500 12300" /> 
<path d="M59700 8000 L64000 12300" /> 
<path d="M59700 16000 L59800 16000" /> 
<path d="M59700 8000 L59700 16000" /> 
<path d="M49665 70677 L49665 70079" /> 
<path d="M41067 70677 L49665 70677" /> 
<path d="M45866 75476 L41067 70677" /> 
<path d="M45866 65476 L45866 75476" /> 
<path d="M48531 11846 L48567 11846" /> 
<path d="M48531 11874 L48531 12236" /> 
<path d="M13610 39354 L13610 38874" /> 
<path d="M6291 39354 L13610 39354" /> 
<path d="M10252 43315 L6291 39354" /> 
<path d="M10252 51594 L10252 43315" /> 
<path d="M10252 34193 L10252 51594" /> 
</g>
<g style="fill:#000000; fill-opacity:0.0; 
  stroke:#000000; stroke-linecap:round; stroke-linejoin:round; stroke-opacity:1.0; stroke-opacity:1.0; stroke-width:3000" 
   transform="translate(0 0) scale(1 1)">
<path d="M72600 50500 L82400 50500" /> 
<path d="M62300 50500 L62400 50500" /> 
<path d="M51700 50500 L62300 50500" /> 
<path d="M72700 50500 L72500 50700" /> 
<path d="M72500 50700 L72500 56000" /> 
<path d="M72600 50500 L72700 50500" /> 
<path d="M62300 50500 L72600 50500" /> 
<path d="M82500 50500 L82500 56000" /> 
<path d="M82400 50500 L82500 50500" /> 
<path d="M51700 50500 L52500 51300" /> 
<path d="M92300 50500 L92500 50700" /> 
<path d="M92500 50700 L92500 56000" /> 
<path d="M82400 50500 L92300 50500" /> 
<path d="M26000 32500 L26000 31600" /> 
<path d="M42100 50500 L51700 50500" /> 
<path d="M62500 50600 L62500 56000" /> 
<path d="M62400 50500 L62500 50600" /> 
<path d="M52500 51300 L52500 56000" /> 
<path d="M42100 50500 L42500 50900" /> 
<path d="M31300 50500 L42100 50500" /> 
<path d="M42500 50900 L42500 56000" /> 
<path d="M25700 50500 L31300 50500" /> 
<path d="M31300 50500 L32100 50500" /> 
<path d="M32500 50900 L32500 56000" /> 
<path d="M32100 50500 L32500 50900" /> 
<path d="M22500 50500 L25700 50500" /> 
<path d="M26000 50200 L26000 47500" /> 
<path d="M25700 50500 L26000 50200" /> 
<path d="M22500 56000 L22500 50500" /> 
<path d="M22500 50500 L22500 47500" /> 
<path d="M26000 31600 L28300 29300" /> 
</g>
<g style="fill:#000000; fill-opacity:1.0; 
  stroke:#000000; stroke-linecap:round; stroke-linejoin:round; stroke-opacity:1.0; stroke-opacity:1.0; stroke-width:0" 
   transform="translate(0 0) scale(1 1)">
<ellipse cx="22525" cy="32500" rx="175" ry="175"  /> 
</g>
<g style="fill:#000000; fill-opacity:1.0; 
  stroke:#000000; stroke-linecap:round; stroke-linejoin:round; stroke-opacity:1.0; stroke-opacity:1.0; stroke-width:3000" 
   transform="translate(0 0) scale(1 1)">
<path d="M22500 29300 L22500 32475" /> 
<path d="M52500 24000 L52500 30400" /> 
<path d="M42500 29500 L43400 30400" /> 
<path d="M43400 30400 L52500 30400" /> 
<path d="M42500 24000 L42500 29500" /> 
<path d="M33900 29500 L42500 29500" /> 
<path d="M32500 28100 L33900 29500" /> 
<path d="M32500 24000 L32500 28100" /> 
<path d="M22500 32475 L22525 32500" /> 
<path d="M62500 24000 L62500 31500" /> 
<path d="M22500 24000 L22500 29300" /> 
<path d="M33700 29300 L33900 29500" /> 
<path d="M28300 29300 L33700 29300" /> 
<path d="M22500 29300 L28300 29300" /> 
<path d="M52500 30400 L52500 32200" /> 
<path d="M53200 31500 L62500 31500" /> 
<path d="M52500 32200 L53200 31500" /> 
<path d="M62500 31500 L74500 31500" /> 
<path d="M72900 29900 L72500 29900" /> 
<path d="M74500 31500 L72900 29900" /> 
<path d="M72500 24000 L72500 29900" /> 
<path d="M72500 29900 L72500 31400" /> 
<path d="M72500 31400 L82500 31400" /> 
<path d="M82500 24000 L82500 31400" /> 
<path d="M83100 32000 L92500 32000" /> 
<path d="M82500 31400 L83100 32000" /> 
<path d="M92500 24000 L92500 32000" /> 
<path d="M92500 32000 L95500 35000" /> 
</g>
<g style="fill:#000000; fill-opacity:1.0; 
  stroke:#000000; stroke-linecap:round; stroke-linejoin:round; stroke-opacity:1.0; stroke-opacity:1.0; stroke-width:100" 
   transform="translate(0 0) scale(1 1)">
<path d="M99475 51801 L99475 51801" /> 
<path d="M98800 51801 L99475 51801" /> 
<path d="M98800 44347 L98800 51801" /> 
<path d="M98299 43134 L98800 44347" /> 
<path d="M97372 42205 L98299 43134" /> 
<path d="M96160 41701 L97372 42205" /> 
<path d="M94847 41700 L96160 41701" /> 
<path d="M93634 42201 L94847 41700" /> 
<path d="M92705 43128 L93634 42201" /> 
<path d="M92201 44340 L92705 43128" /> 
<path d="M92200 45653 L92201 44340" /> 
<path d="M92701 46866 L92200 45653" /> 
<path d="M93628 47795 L92701 46866" /> 
<path d="M94840 48299 L93628 47795" /> 
<path d="M96153 48300 L94840 48299" /> 
<path d="M97366 47799 L96153 48300" /> 
<path d="M98295 46872 L97366 47799" /> 
<path d="M98799 45660 L98295 46872" /> 
<path d="M98800 44347 L98799 45660" /> 
<path d="M98800 51801 L98800 44347" /> 
<path d="M95261 51801 L98800 51801" /> 
<path d="M95096 51869 L95261 51801" /> 
<path d="M94970 51995 L95096 51869" /> 
<path d="M94901 52160 L94970 51995" /> 
<path d="M94901 52250 L94901 52160" /> 
<path d="M90099 52250 L94901 52250" /> 
<path d="M90099 52161 L90099 52250" /> 
<path d="M90031 51996 L90099 52161" /> 
<path d="M89905 51870 L90031 51996" /> 
<path d="M89740 51801 L89905 51870" /> 
<path d="M89561 51801 L89740 51801" /> 
<path d="M85261 51801 L89561 51801" /> 
<path d="M85096 51869 L85261 51801" /> 
<path d="M84970 51995 L85096 51869" /> 
<path d="M84901 52160 L84970 51995" /> 
<path d="M84901 52250 L84901 52160" /> 
<path d="M80099 52250 L84901 52250" /> 
<path d="M80099 52161 L80099 52250" /> 
<path d="M80031 51996 L80099 52161" /> 
<path d="M79905 51870 L80031 51996" /> 
<path d="M79740 51801 L79905 51870" /> 
<path d="M79561 51801 L79740 51801" /> 
<path d="M75261 51801 L79561 51801" /> 
<path d="M75096 51869 L75261 51801" /> 
<path d="M74970 51995 L75096 51869" /> 
<path d="M74901 52160 L74970 51995" /> 
<path d="M74901 52250 L74901 52160" /> 
<path d="M70099 52250 L74901 52250" /> 
<path d="M70099 52161 L70099 52250" /> 
<path d="M70031 51996 L70099 52161" /> 
<path d="M69905 51870 L70031 51996" /> 
<path d="M69740 51801 L69905 51870" /> 
<path d="M69561 51801 L69740 51801" /> 
<path d="M65261 51801 L69561 51801" /> 
<path d="M65096 51869 L65261 51801" /> 
<path d="M64970 51995 L65096 51869" /> 
<path d="M64901 52160 L64970 51995" /> 
<path d="M64901 52250 L64901 52160" /> 
<path d="M60099 52250 L64901 52250" /> 
<path d="M60099 52161 L60099 52250" /> 
<path d="M60031 51996 L60099 52161" /> 
<path d="M59905 51870 L60031 51996" /> 
<path d="M59740 51801 L59905 51870" /> 
<path d="M59561 51801 L59740 51801" /> 
<path d="M55261 51801 L59561 51801" /> 
<path d="M55096 51869 L55261 51801" /> 
<path d="M54970 51995 L55096 51869" /> 
<path d="M54901 52160 L54970 51995" /> 
<path d="M54901 52250 L54901 52160" /> 
<path d="M50099 52250 L54901 52250" /> 
<path d="M50099 52161 L50099 52250" /> 
<path d="M50031 51996 L50099 52161" /> 
<path d="M49905 51870 L50031 51996" /> 
<path d="M49740 51801 L49905 51870" /> 
<path d="M49561 51801 L49740 51801" /> 
<path d="M45349 51801 L49561 51801" /> 
<path d="M45349 48290 L45349 51801" /> 
<path d="M45349 48111 L45349 48290" /> 
<path d="M45349 41111 L45349 48111" /> 
<path d="M45349 39290 L45349 41111" /> 
<path d="M45349 39111 L45349 39290" /> 
<path d="M45349 32111 L45349 39111" /> 
<path d="M45281 31946 L45349 32111" /> 
<path d="M45155 31820 L45281 31946" /> 
<path d="M44990 31751 L45155 31820" /> 
<path d="M44811 31751 L44990 31751" /> 
<path d="M37811 31751 L44811 31751" /> 
<path d="M37646 31819 L37811 31751" /> 
<path d="M37520 31945 L37646 31819" /> 
<path d="M37451 32110 L37520 31945" /> 
<path d="M37451 32289 L37451 32110" /> 
<path d="M37451 39289 L37451 32289" /> 
<path d="M37519 39454 L37451 39289" /> 
<path d="M37645 39580 L37519 39454" /> 
<path d="M37810 39649 L37645 39580" /> 
<path d="M37989 39649 L37810 39649" /> 
<path d="M44989 39649 L37989 39649" /> 
<path d="M45154 39581 L44989 39649" /> 
<path d="M45280 39455 L45154 39581" /> 
<path d="M45349 39290 L45280 39455" /> 
<path d="M45349 41111 L45349 39290" /> 
<path d="M45281 40946 L45349 41111" /> 
<path d="M45155 40820 L45281 40946" /> 
<path d="M44990 40751 L45155 40820" /> 
<path d="M44811 40751 L44990 40751" /> 
<path d="M37811 40751 L44811 40751" /> 
<path d="M37646 40819 L37811 40751" /> 
<path d="M37520 40945 L37646 40819" /> 
<path d="M37451 41110 L37520 40945" /> 
<path d="M37451 41289 L37451 41110" /> 
<path d="M37451 48289 L37451 41289" /> 
<path d="M37519 48454 L37451 48289" /> 
<path d="M37645 48580 L37519 48454" /> 
<path d="M37810 48649 L37645 48580" /> 
<path d="M37989 48649 L37810 48649" /> 
<path d="M44989 48649 L37989 48649" /> 
<path d="M45154 48581 L44989 48649" /> 
<path d="M45280 48455 L45154 48581" /> 
<path d="M45349 48290 L45280 48455" /> 
<path d="M45349 51801 L45349 48290" /> 
<path d="M45261 51801 L45349 51801" /> 
<path d="M45096 51869 L45261 51801" /> 
<path d="M44970 51995 L45096 51869" /> 
<path d="M44901 52160 L44970 51995" /> 
<path d="M44901 52250 L44901 52160" /> 
<path d="M40099 52250 L44901 52250" /> 
<path d="M40099 52161 L40099 52250" /> 
<path d="M40031 51996 L40099 52161" /> 
<path d="M39905 51870 L40031 51996" /> 
<path d="M39740 51801 L39905 51870" /> 
<path d="M39561 51801 L39740 51801" /> 
<path d="M36950 51801 L39561 51801" /> 
<path d="M36950 39614 L36950 51801" /> 
<path d="M36654 38897 L36950 39614" /> 
<path d="M36106 38348 L36654 38897" /> 
<path d="M35390 38051 L36106 38348" /> 
<path d="M34614 38050 L35390 38051" /> 
<path d="M33897 38346 L34614 38050" /> 
<path d="M33348 38894 L33897 38346" /> 
<path d="M33051 39610 L33348 38894" /> 
<path d="M33050 40386 L33051 39610" /> 
<path d="M33346 41103 L33050 40386" /> 
<path d="M33894 41652 L33346 41103" /> 
<path d="M34610 41949 L33894 41652" /> 
<path d="M35386 41950 L34610 41949" /> 
<path d="M36103 41654 L35386 41950" /> 
<path d="M36652 41106 L36103 41654" /> 
<path d="M36949 40390 L36652 41106" /> 
<path d="M36950 39614 L36949 40390" /> 
<path d="M36950 51801 L36950 39614" /> 
<path d="M35261 51801 L36950 51801" /> 
<path d="M35096 51869 L35261 51801" /> 
<path d="M34970 51995 L35096 51869" /> 
<path d="M34901 52160 L34970 51995" /> 
<path d="M34901 52250 L34901 52160" /> 
<path d="M31950 52250 L34901 52250" /> 
<path d="M31950 39589 L31950 52250" /> 
<path d="M31654 38872 L31950 39589" /> 
<path d="M31106 38323 L31654 38872" /> 
<path d="M30390 38026 L31106 38323" /> 
<path d="M29614 38025 L30390 38026" /> 
<path d="M28897 38321 L29614 38025" /> 
<path d="M28348 38869 L28897 38321" /> 
<path d="M28051 39585 L28348 38869" /> 
<path d="M28050 40361 L28051 39585" /> 
<path d="M28346 41078 L28050 40361" /> 
<path d="M28894 41627 L28346 41078" /> 
<path d="M29610 41924 L28894 41627" /> 
<path d="M30386 41925 L29610 41924" /> 
<path d="M31103 41629 L30386 41925" /> 
<path d="M31652 41081 L31103 41629" /> 
<path d="M31949 40365 L31652 41081" /> 
<path d="M31950 39589 L31949 40365" /> 
<path d="M31950 52250 L31950 39589" /> 
<path d="M30099 52250 L31950 52250" /> 
<path d="M30099 52161 L30099 52250" /> 
<path d="M30031 51996 L30099 52161" /> 
<path d="M29905 51870 L30031 51996" /> 
<path d="M29740 51801 L29905 51870" /> 
<path d="M29561 51801 L29740 51801" /> 
<path d="M26799 51801 L29561 51801" /> 
<path d="M26799 42660 L26799 51801" /> 
<path d="M26799 42342 L26799 42660" /> 
<path d="M26799 37660 L26799 42342" /> 
<path d="M26799 37342 L26799 37660" /> 
<path d="M26678 37048 L26799 37342" /> 
<path d="M26453 36823 L26678 37048" /> 
<path d="M26160 36701 L26453 36823" /> 
<path d="M25842 36701 L26160 36701" /> 
<path d="M25548 36822 L25842 36701" /> 
<path d="M25323 37047 L25548 36822" /> 
<path d="M25201 37340 L25323 37047" /> 
<path d="M25201 37658 L25201 37340" /> 
<path d="M25322 37952 L25201 37658" /> 
<path d="M25547 38177 L25322 37952" /> 
<path d="M25840 38299 L25547 38177" /> 
<path d="M26158 38299 L25840 38299" /> 
<path d="M26452 38178 L26158 38299" /> 
<path d="M26677 37953 L26452 38178" /> 
<path d="M26799 37660 L26677 37953" /> 
<path d="M26799 42342 L26799 37660" /> 
<path d="M26678 42048 L26799 42342" /> 
<path d="M26453 41823 L26678 42048" /> 
<path d="M26160 41701 L26453 41823" /> 
<path d="M25842 41701 L26160 41701" /> 
<path d="M25548 41822 L25842 41701" /> 
<path d="M25323 42047 L25548 41822" /> 
<path d="M25201 42340 L25323 42047" /> 
<path d="M25201 42658 L25201 42340" /> 
<path d="M25322 42952 L25201 42658" /> 
<path d="M25547 43177 L25322 42952" /> 
<path d="M25840 43299 L25547 43177" /> 
<path d="M26158 43299 L25840 43299" /> 
<path d="M26452 43178 L26158 43299" /> 
<path d="M26677 42953 L26452 43178" /> 
<path d="M26799 42660 L26677 42953" /> 
<path d="M26799 51801 L26799 42660" /> 
<path d="M25261 51801 L26799 51801" /> 
<path d="M25096 51869 L25261 51801" /> 
<path d="M24970 51995 L25096 51869" /> 
<path d="M24901 52160 L24970 51995" /> 
<path d="M24901 52250 L24901 52160" /> 
<path d="M24475 52250 L24901 52250" /> 
<path d="M24475 42114 L24475 52250" /> 
<path d="M24450 42053 L24475 42114" /> 
<path d="M24450 37114 L24450 42053" /> 
<path d="M24154 36397 L24450 37114" /> 
<path d="M23606 35848 L24154 36397" /> 
<path d="M22890 35551 L23606 35848" /> 
<path d="M22114 35550 L22890 35551" /> 
<path d="M21397 35846 L22114 35550" /> 
<path d="M20848 36394 L21397 35846" /> 
<path d="M20551 37110 L20848 36394" /> 
<path d="M20550 37886 L20551 37110" /> 
<path d="M20846 38603 L20550 37886" /> 
<path d="M21394 39152 L20846 38603" /> 
<path d="M22110 39449 L21394 39152" /> 
<path d="M22886 39450 L22110 39449" /> 
<path d="M23603 39154 L22886 39450" /> 
<path d="M24152 38606 L23603 39154" /> 
<path d="M24449 37890 L24152 38606" /> 
<path d="M24450 37114 L24449 37890" /> 
<path d="M24450 42053 L24450 37114" /> 
<path d="M24179 41397 L24450 42053" /> 
<path d="M23631 40848 L24179 41397" /> 
<path d="M22915 40551 L23631 40848" /> 
<path d="M22139 40550 L22915 40551" /> 
<path d="M21422 40846 L22139 40550" /> 
<path d="M20873 41394 L21422 40846" /> 
<path d="M20576 42110 L20873 41394" /> 
<path d="M20575 42886 L20576 42110" /> 
<path d="M20871 43603 L20575 42886" /> 
<path d="M21419 44152 L20871 43603" /> 
<path d="M22135 44449 L21419 44152" /> 
<path d="M22911 44450 L22135 44449" /> 
<path d="M23628 44154 L22911 44450" /> 
<path d="M24177 43606 L23628 44154" /> 
<path d="M24474 42890 L24177 43606" /> 
<path d="M24475 42114 L24474 42890" /> 
<path d="M24475 52250 L24475 42114" /> 
<path d="M20525 52250 L24475 52250" /> 
<path d="M20525 27750 L20525 52250" /> 
<path d="M24901 27750 L20525 27750" /> 
<path d="M24901 27839 L24901 27750" /> 
<path d="M24969 28004 L24901 27839" /> 
<path d="M25095 28130 L24969 28004" /> 
<path d="M25260 28199 L25095 28130" /> 
<path d="M25439 28199 L25260 28199" /> 
<path d="M29739 28199 L25439 28199" /> 
<path d="M29904 28131 L29739 28199" /> 
<path d="M30030 28005 L29904 28131" /> 
<path d="M30099 27840 L30030 28005" /> 
<path d="M30099 27750 L30099 27840" /> 
<path d="M34901 27750 L30099 27750" /> 
<path d="M34901 27839 L34901 27750" /> 
<path d="M34969 28004 L34901 27839" /> 
<path d="M35095 28130 L34969 28004" /> 
<path d="M35260 28199 L35095 28130" /> 
<path d="M35439 28199 L35260 28199" /> 
<path d="M39739 28199 L35439 28199" /> 
<path d="M39904 28131 L39739 28199" /> 
<path d="M40030 28005 L39904 28131" /> 
<path d="M40099 27840 L40030 28005" /> 
<path d="M40099 27750 L40099 27840" /> 
<path d="M44901 27750 L40099 27750" /> 
<path d="M44901 27839 L44901 27750" /> 
<path d="M44969 28004 L44901 27839" /> 
<path d="M45095 28130 L44969 28004" /> 
<path d="M45260 28199 L45095 28130" /> 
<path d="M45439 28199 L45260 28199" /> 
<path d="M49739 28199 L45439 28199" /> 
<path d="M49904 28131 L49739 28199" /> 
<path d="M50030 28005 L49904 28131" /> 
<path d="M50099 27840 L50030 28005" /> 
<path d="M50099 27750 L50099 27840" /> 
<path d="M54901 27750 L50099 27750" /> 
<path d="M54901 27839 L54901 27750" /> 
<path d="M54969 28004 L54901 27839" /> 
<path d="M55095 28130 L54969 28004" /> 
<path d="M55260 28199 L55095 28130" /> 
<path d="M55439 28199 L55260 28199" /> 
<path d="M59739 28199 L55439 28199" /> 
<path d="M59904 28131 L59739 28199" /> 
<path d="M60030 28005 L59904 28131" /> 
<path d="M60099 27840 L60030 28005" /> 
<path d="M60099 27750 L60099 27840" /> 
<path d="M64901 27750 L60099 27750" /> 
<path d="M64901 27839 L64901 27750" /> 
<path d="M64969 28004 L64901 27839" /> 
<path d="M65095 28130 L64969 28004" /> 
<path d="M65260 28199 L65095 28130" /> 
<path d="M65439 28199 L65260 28199" /> 
<path d="M69739 28199 L65439 28199" /> 
<path d="M69904 28131 L69739 28199" /> 
<path d="M70030 28005 L69904 28131" /> 
<path d="M70099 27840 L70030 28005" /> 
<path d="M70099 27750 L70099 27840" /> 
<path d="M74901 27750 L70099 27750" /> 
<path d="M74901 27839 L74901 27750" /> 
<path d="M74969 28004 L74901 27839" /> 
<path d="M75095 28130 L74969 28004" /> 
<path d="M75260 28199 L75095 28130" /> 
<path d="M75439 28199 L75260 28199" /> 
<path d="M79739 28199 L75439 28199" /> 
<path d="M79904 28131 L79739 28199" /> 
<path d="M80030 28005 L79904 28131" /> 
<path d="M80099 27840 L80030 28005" /> 
<path d="M80099 27750 L80099 27840" /> 
<path d="M84901 27750 L80099 27750" /> 
<path d="M84901 27839 L84901 27750" /> 
<path d="M84969 28004 L84901 27839" /> 
<path d="M85095 28130 L84969 28004" /> 
<path d="M85260 28199 L85095 28130" /> 
<path d="M85439 28199 L85260 28199" /> 
<path d="M89739 28199 L85439 28199" /> 
<path d="M89904 28131 L89739 28199" /> 
<path d="M90030 28005 L89904 28131" /> 
<path d="M90099 27840 L90030 28005" /> 
<path d="M90099 27750 L90099 27840" /> 
<path d="M94901 27750 L90099 27750" /> 
<path d="M94901 27839 L94901 27750" /> 
<path d="M94969 28004 L94901 27839" /> 
<path d="M95095 28130 L94969 28004" /> 
<path d="M95260 28199 L95095 28130" /> 
<path d="M95439 28199 L95260 28199" /> 
<path d="M99475 28199 L95439 28199" /> 
<path d="M99475 51801 L99475 28199" /> 
</g>
<g style="fill:#000000; fill-opacity:1.0; 
  stroke:#000000; stroke-linecap:round; stroke-linejoin:round; stroke-opacity:1.0; stroke-opacity:1.0; stroke-width:0" 
   transform="translate(0 0) scale(1 1)">
<polygon style="fill-rule:evenodd; " 
points="97372,42205
96160,41701
94847,41700
93634,42201
92705,43128
92201,44340
92200,45653
92701,46866
93628,47795
94840,48299
96153,48300
97366,47799
98295,46872
98799,45660
98800,44347
98800,51801
95261,51801
95096,51869
94970,51995
94901,52160
94901,52250
90099,52250
90099,52161
90031,51996
89905,51870
89740,51801
89561,51801
85261,51801
85096,51869
84970,51995
84901,52160
84901,52250
80099,52250
80099,52161
80031,51996
79905,51870
79740,51801
79561,51801
75261,51801
75096,51869
74970,51995
74901,52160
74901,52250
70099,52250
70099,52161
70031,51996
69905,51870
69740,51801
69561,51801
65261,51801
65096,51869
64970,51995
64901,52160
64901,52250
60099,52250
60099,52161
60031,51996
59905,51870
59740,51801
59561,51801
55261,51801
55096,51869
54970,51995
54901,52160
54901,52250
50099,52250
50099,52161
50031,51996
49905,51870
49740,51801
49561,51801
45349,51801
45349,48290
45349,48111
45349,41111
45349,39290
45349,39111
45349,32111
45281,31946
45155,31820
44990,31751
44811,31751
37811,31751
37646,31819
37520,31945
37451,32110
37451,32289
37451,39289
37519,39454
37645,39580
37810,39649
37989,39649
44989,39649
45154,39581
45280,39455
45349,39290
45349,41111
45281,40946
45155,40820
44990,40751
44811,40751
37811,40751
37646,40819
37520,40945
37451,41110
37451,41289
37451,48289
37519,48454
37645,48580
37810,48649
37989,48649
44989,48649
45154,48581
45280,48455
45349,48290
45349,51801
45261,51801
45096,51869
44970,51995
44901,52160
44901,52250
40099,52250
40099,52161
40031,51996
39905,51870
39740,51801
39561,51801
36950,51801
36950,39614
36654,38897
36106,38348
35390,38051
34614,38050
33897,38346
33348,38894
33051,39610
33050,40386
33346,41103
33894,41652
34610,41949
35386,41950
36103,41654
36652,41106
36949,40390
36950,39614
36950,51801
35261,51801
35096,51869
34970,51995
34901,52160
34901,52250
31950,52250
31950,39589
31654,38872
31106,38323
30390,38026
29614,38025
28897,38321
28348,38869
28051,39585
28050,40361
28346,41078
28894,41627
29610,41924
30386,41925
31103,41629
31652,41081
31949,40365
31950,39589
31950,52250
30099,52250
30099,52161
30031,51996
29905,51870
29740,51801
29561,51801
26799,51801
26799,42660
26799,42342
26799,37660
26799,37342
26678,37048
26453,36823
26160,36701
25842,36701
25548,36822
25323,37047
25201,37340
25201,37658
25322,37952
25547,38177
25840,38299
26158,38299
26452,38178
26677,37953
26799,37660
26799,42342
26678,42048
26453,41823
26160,41701
25842,41701
25548,41822
25323,42047
25201,42340
25201,42658
25322,42952
25547,43177
25840,43299
26158,43299
26452,43178
26677,42953
26799,42660
26799,51801
25261,51801
25096,51869
24970,51995
24901,52160
24901,52250
24475,52250
24475,42114
24450,42053
24450,37114
24154,36397
23606,35848
22890,35551
22114,35550
21397,35846
20848,36394
20551,37110
20550,37886
20846,38603
21394,39152
22110,39449
22886,39450
23603,39154
24152,38606
24449,37890
24450,37114
24450,42053
24179,41397
23631,40848
22915,40551
22139,40550
21422,40846
20873,41394
20576,42110
20575,42886
20871,43603
21419,44152
22135,44449
22911,44450
23628,44154
24177,43606
24474,42890
24475,42114
24475,52250
20525,52250
20525,27750
24901,27750
24901,27839
24969,28004
25095,28130
25260,28199
25439,28199
29739,28199
29904,28131
30030,28005
30099,27840
30099,27750
34901,27750
34901,27839
34969,28004
35095,28130
35260,28199
35439,28199
39739,28199
39904,28131
40030,28005
40099,27840
40099,27750
44901,27750
44901,27839
44969,28004
45095,28130
45260,28199
45439,28199
49739,28199
49904,28131
50030,28005
50099,27840
50099,27750
54901,27750
54901,27839
54969,28004
55095,28130
55260,28199
55439,28199
59739,28199
59904,28131
60030,28005
60099,27840
60099,27750
64901,27750
64901,27839
64969,28004
65095,28130
65260,28199
65439,28199
69739,28199
69904,28131
70030,28005
70099,27840
70099,27750
74901,27750
74901,27839
74969,28004
75095,28130
75260,28199
75439,28199
79739,28199
79904,28131
80030,28005
80099,27840
80099,27750
84901,27750
84901,27839
84969,28004
85095,28130
85260,28199
85439,28199
89739,28199
89904,28131
90030,28005
90099,27840
90099,27750
94901,27750
94901,27839
94969,28004
95095,28130
95260,28199
95439,28199
99475,28199
99475,51801
99475,51801
98800,51801
98800,44347
98299,43134
" /> 
<ellipse cx="95500" cy="35000" rx="2250" ry="2250"  /> 
</g>
<g style="fill:#FFFFFF; fill-opacity:1.0; 
  stroke:#808000; stroke-linecap:round; stroke-linejoin:round; stroke-opacity:1.0; stroke-opacity:1.0; stroke-width:0" 
   transform="translate(0 0) scale(1 1)">
<ellipse cx="95500" cy="35000" rx="1650" ry="1650"  /> 
</g>
<g style="fill:#000000; fill-opacity:1.0; 
  stroke:#000000; stroke-linecap:round; stroke-linejoin:round; stroke-opacity:1.0; stroke-opacity:1.0; stroke-width:0" 
   transform="translate(0 0) scale(1 1)">
<ellipse cx="95500" cy="45000" rx="2250" ry="2250"  /> 
</g>
<g style="fill:#FFFFFF; fill-opacity:1.0; 
  stroke:#808000; stroke-linecap:round; stroke-linejoin:round; stroke-opacity:1.0; stroke-opacity:1.0; stroke-width:0" 
   transform="translate(0 0) scale(1 1)">
<ellipse cx="95500" cy="45000" rx="1650" ry="1650"  /> 
</g>
<g style="fill:#000000; fill-opacity:1.0; 
  stroke:#000000; stroke-linecap:round; stroke-linejoin:round; stroke-opacity:1.0; stroke-opacity:1.0; stroke-width:0" 
   transform="translate(0 0) scale(1 1)">
<ellipse cx="35000" cy="40000" rx="1500" ry="1500"  /> 
</g>
<g style="fill:#FFFFFF; fill-opacity:1.0; 
  stroke:#808000; stroke-linecap:round; stroke-linejoin:round; stroke-opacity:1.0; stroke-opacity:1.0; stroke-width:0" 
   transform="translate(0 0) scale(1 1)">
<ellipse cx="35000" cy="40000" rx="865" ry="865"  /> 
</g>
<g style="fill:#000000; fill-opacity:1.0; 
  stroke:#000000; stroke-linecap:round; stroke-linejoin:round; stroke-opacity:1.0; stroke-opacity:1.0; stroke-width:0" 
   transform="translate(0 0) scale(1 1)">
<ellipse cx="30000" cy="39975" rx="1500" ry="1500"  /> 
</g>
<g style="fill:#FFFFFF; fill-opacity:1.0; 
  stroke:#808000; stroke-linecap:round; stroke-linejoin:round; stroke-opacity:1.0; stroke-opacity:1.0; stroke-width:0" 
   transform="translate(0 0) scale(1 1)">
<ellipse cx="30000" cy="39975" rx="865" ry="865"  /> 
</g>
<g style="fill:#000000; fill-opacity:1.0; 
  stroke:#000000; stroke-linecap:round; stroke-linejoin:round; stroke-opacity:1.0; stroke-opacity:1.0; stroke-width:0" 
   transform="translate(0 0) scale(1 1)">
<ellipse cx="22500" cy="37500" rx="1500" ry="1500"  /> 
</g>
<g style="fill:#FFFFFF; fill-opacity:1.0; 
  stroke:#808000; stroke-linecap:round; stroke-linejoin:round; stroke-opacity:1.0; stroke-opacity:1.0; stroke-width:0" 
   transform="translate(0 0) scale(1 1)">
<ellipse cx="22500" cy="37500" rx="865" ry="865"  /> 
</g>
<g style="fill:#000000; fill-opacity:1.0; 
  stroke:#000000; stroke-linecap:round; stroke-linejoin:round; stroke-opacity:1.0; stroke-opacity:1.0; stroke-width:0" 
   transform="translate(0 0) scale(1 1)">
<ellipse cx="22525" cy="32500" rx="1500" ry="1500"  /> 
</g>
<g style="fill:#FFFFFF; fill-opacity:1.0; 
  stroke:#808000; stroke-linecap:round; stroke-linejoin:round; stroke-opacity:1.0; stroke-opacity:1.0; stroke-width:0" 
   transform="translate(0 0) scale(1 1)">
<ellipse cx="22525" cy="32500" rx="865" ry="865"  /> 
</g>
<g style="fill:#000000; fill-opacity:1.0; 
  stroke:#000000; stroke-linecap:round; stroke-linejoin:round; stroke-opacity:1.0; stroke-opacity:1.0; stroke-width:0" 
   transform="translate(0 0) scale(1 1)">
<ellipse cx="22500" cy="47500" rx="1500" ry="1500"  /> 
</g>
<g style="fill:#FFFFFF; fill-opacity:1.0; 
  stroke:#808000; stroke-linecap:round; stroke-linejoin:round; stroke-opacity:1.0; stroke-opacity:1.0; stroke-width:0" 
   transform="translate(0 0) scale(1 1)">
<ellipse cx="22500" cy="47500" rx="865" ry="865"  /> 
</g>
<g style="fill:#000000; fill-opacity:1.0; 
  stroke:#000000; stroke-linecap:round; stroke-linejoin:round; stroke-opacity:1.0; stroke-opacity:1.0; stroke-width:0" 
   transform="translate(0 0) scale(1 1)">
<ellipse cx="22525" cy="42500" rx="1500" ry="1500"  /> 
</g>
<g style="fill:#FFFFFF; fill-opacity:1.0; 
  stroke:#808000; stroke-linecap:round; stroke-linejoin:round; stroke-opacity:1.0; stroke-opacity:1.0; stroke-width:0" 
   transform="translate(0 0) scale(1 1)">
<ellipse cx="22525" cy="42500" rx="865" ry="865"  /> 
</g>
<g style="fill:#000000; fill-opacity:1.0; 
  stroke:#000000; stroke-linecap:round; stroke-linejoin:round; stroke-opacity:1.0; stroke-opacity:1.0; stroke-width:0" 
   transform="translate(0 0) scale(1 1)">
<polygon style="fill-rule:evenodd; " 
points="20350,27750
20350,20250
24650,20250
24650,27750
" /> 
</g>
<g style="fill:#FFFFFF; fill-opacity:1.0; 
  stroke:#808000; stroke-linecap:round; stroke-linejoin:round; stroke-opacity:1.0; stroke-opacity:1.0; stroke-width:0" 
   transform="translate(0 0) scale(1 1)">
<ellipse cx="22500" cy="24000" rx="865" ry="865"  /> 
</g>
<g style="fill:#000000; fill-opacity:1.0; 
  stroke:#000000; stroke-linecap:round; stroke-linejoin:round; stroke-opacity:1.0; stroke-opacity:1.0; stroke-width:0" 
   transform="translate(0 0) scale(1 1)">
<polygon style="fill-rule:evenodd; " 
points="25350,27750
25350,20250
29650,20250
29650,27750
" /> 
</g>
<g style="fill:#FFFFFF; fill-opacity:1.0; 
  stroke:#808000; stroke-linecap:round; stroke-linejoin:round; stroke-opacity:1.0; stroke-opacity:1.0; stroke-width:0" 
   transform="translate(0 0) scale(1 1)">
<ellipse cx="27500" cy="24000" rx="865" ry="865"  /> 
</g>
<g style="fill:#000000; fill-opacity:1.0; 
  stroke:#000000; stroke-linecap:round; stroke-linejoin:round; stroke-opacity:1.0; stroke-opacity:1.0; stroke-width:0" 
   transform="translate(0 0) scale(1 1)">
<polygon style="fill-rule:evenodd; " 
points="30350,27750
30350,20250
34650,20250
34650,27750
" /> 
</g>
<g style="fill:#FFFFFF; fill-opacity:1.0; 
  stroke:#808000; stroke-linecap:round; stroke-linejoin:round; stroke-opacity:1.0; stroke-opacity:1.0; stroke-width:0" 
   transform="translate(0 0) scale(1 1)">
<ellipse cx="32500" cy="24000" rx="865" ry="865"  /> 
</g>
<g style="fill:#000000; fill-opacity:1.0; 
  stroke:#000000; stroke-linecap:round; stroke-linejoin:round; stroke-opacity:1.0; stroke-opacity:1.0; stroke-width:0" 
   transform="translate(0 0) scale(1 1)">
<polygon style="fill-rule:evenodd; " 
points="35350,27750
35350,20250
39650,20250
39650,27750
" /> 
</g>
<g style="fill:#FFFFFF; fill-opacity:1.0; 
  stroke:#808000; stroke-linecap:round; stroke-linejoin:round; stroke-opacity:1.0; stroke-opacity:1.0; stroke-width:0" 
   transform="translate(0 0) scale(1 1)">
<ellipse cx="37500" cy="24000" rx="865" ry="865"  /> 
</g>
<g style="fill:#000000; fill-opacity:1.0; 
  stroke:#000000; stroke-linecap:round; stroke-linejoin:round; stroke-opacity:1.0; stroke-opacity:1.0; stroke-width:0" 
   transform="translate(0 0) scale(1 1)">
<polygon style="fill-rule:evenodd; " 
points="40350,27750
40350,20250
44650,20250
44650,27750
" /> 
</g>
<g style="fill:#FFFFFF; fill-opacity:1.0; 
  stroke:#808000; stroke-linecap:round; stroke-linejoin:round; stroke-opacity:1.0; stroke-opacity:1.0; stroke-width:0" 
   transform="translate(0 0) scale(1 1)">
<ellipse cx="42500" cy="24000" rx="865" ry="865"  /> 
</g>
<g style="fill:#000000; fill-opacity:1.0; 
  stroke:#000000; stroke-linecap:round; stroke-linejoin:round; stroke-opacity:1.0; stroke-opacity:1.0; stroke-width:0" 
   transform="translate(0 0) scale(1 1)">
<polygon style="fill-rule:evenodd; " 
points="45350,27750
45350,20250
49650,20250
49650,27750
" /> 
</g>
<g style="fill:#FFFFFF; fill-opacity:1.0; 
  stroke:#808000; stroke-linecap:round; stroke-linejoin:round; stroke-opacity:1.0; stroke-opacity:1.0; stroke-width:0" 
   transform="translate(0 0) scale(1 1)">
<ellipse cx="47500" cy="24000" rx="865" ry="865"  /> 
</g>
<g style="fill:#000000; fill-opacity:1.0; 
  stroke:#000000; stroke-linecap:round; stroke-linejoin:round; stroke-opacity:1.0; stroke-opacity:1.0; stroke-width:0" 
   transform="translate(0 0) scale(1 1)">
<polygon style="fill-rule:evenodd; " 
points="50350,27750
50350,20250
54650,20250
54650,27750
" /> 
</g>
<g style="fill:#FFFFFF; fill-opacity:1.0; 
  stroke:#808000; stroke-linecap:round; stroke-linejoin:round; stroke-opacity:1.0; stroke-opacity:1.0; stroke-width:0" 
   transform="translate(0 0) scale(1 1)">
<ellipse cx="52500" cy="24000" rx="865" ry="865"  /> 
</g>
<g style="fill:#000000; fill-opacity:1.0; 
  stroke:#000000; stroke-linecap:round; stroke-linejoin:round; stroke-opacity:1.0; stroke-opacity:1.0; stroke-width:0" 
   transform="translate(0 0) scale(1 1)">
<polygon style="fill-rule:evenodd; " 
points="55350,27750
55350,20250
59650,20250
59650,27750
" /> 
</g>
<g style="fill:#FFFFFF; fill-opacity:1.0; 
  stroke:#808000; stroke-linecap:round; stroke-linejoin:round; stroke-opacity:1.0; stroke-opacity:1.0; stroke-width:0" 
   transform="translate(0 0) scale(1 1)">
<ellipse cx="57500" cy="24000" rx="865" ry="865"  /> 
</g>
<g style="fill:#000000; fill-opacity:1.0; 
  stroke:#000000; stroke-linecap:round; stroke-linejoin:round; stroke-opacity:1.0; stroke-opacity:1.0; stroke-width:0" 
   transform="translate(0 0) scale(1 1)">
<polygon style="fill-rule:evenodd; " 
points="60350,27750
60350,20250
64650,20250
64650,27750
" /> 
</g>
<g style="fill:#FFFFFF; fill-opacity:1.0; 
  stroke:#808000; stroke-linecap:round; stroke-linejoin:round; stroke-opacity:1.0; stroke-opacity:1.0; stroke-width:0" 
   transform="translate(0 0) scale(1 1)">
<ellipse cx="62500" cy="24000" rx="865" ry="865"  /> 
</g>
<g style="fill:#000000; fill-opacity:1.0; 
  stroke:#000000; stroke-linecap:round; stroke-linejoin:round; stroke-opacity:1.0; stroke-opacity:1.0; stroke-width:0" 
   transform="translate(0 0) scale(1 1)">
<polygon style="fill-rule:evenodd; " 
points="65350,27750
65350,20250
69650,20250
69650,27750
" /> 
</g>
<g style="fill:#FFFFFF; fill-opacity:1.0; 
  stroke:#808000; stroke-linecap:round; stroke-linejoin:round; stroke-opacity:1.0; stroke-opacity:1.0; stroke-width:0" 
   transform="translate(0 0) scale(1 1)">
<ellipse cx="67500" cy="24000" rx="865" ry="865"  /> 
</g>
<g style="fill:#000000; fill-opacity:1.0; 
  stroke:#000000; stroke-linecap:round; stroke-linejoin:round; stroke-opacity:1.0; stroke-opacity:1.0; stroke-width:0" 
   transform="translate(0 0) scale(1 1)">
<polygon style="fill-rule:evenodd; " 
points="70350,27750
70350,20250
74650,20250
74650,27750
" /> 
</g>
<g style="fill:#FFFFFF; fill-opacity:1.0; 
  stroke:#808000; stroke-linecap:round; stroke-linejoin:round; stroke-opacity:1.0; stroke-opacity:1.0; stroke-width:0" 
   transform="translate(0 0) scale(1 1)">
<ellipse cx="72500" cy="24000" rx="865" ry="865"  /> 
</g>
<g style="fill:#000000; fill-opacity:1.0; 
  stroke:#000000; stroke-linecap:round; stroke-linejoin:round; stroke-opacity:1.0; stroke-opacity:1.0; stroke-width:0" 
   transform="translate(0 0) scale(1 1)">
<polygon style="fill-rule:evenodd; " 
points="75350,27750
75350,20250
79650,20250
79650,27750
" /> 
</g>
<g style="fill:#FFFFFF; fill-opacity:1.0; 
  stroke:#808000; stroke-linecap:round; stroke-linejoin:round; stroke-opacity:1.0; stroke-opacity:1.0; stroke-width:0" 
   transform="translate(0 0) scale(1 1)">
<ellipse cx="77500" cy="24000" rx="865" ry="865"  /> 
</g>
<g style="fill:#000000; fill-opacity:1.0; 
  stroke:#000000; stroke-linecap:round; stroke-linejoin:round; stroke-opacity:1.0; stroke-opacity:1.0; stroke-width:0" 
   transform="translate(0 0) scale(1 1)">
<polygon style="fill-rule:evenodd; " 
points="80350,27750
80350,20250
84650,20250
84650,27750
" /> 
</g>
<g style="fill:#FFFFFF; fill-opacity:1.0; 
  stroke:#808000; stroke-linecap:round; stroke-linejoin:round; stroke-opacity:1.0; stroke-opacity:1.0; stroke-width:0" 
   transform="translate(0 0) scale(1 1)">
<ellipse cx="82500" cy="24000" rx="865" ry="865"  /> 
</g>
<g style="fill:#000000; fill-opacity:1.0; 
  stroke:#000000; stroke-linecap:round; stroke-linejoin:round; stroke-opacity:1.0; stroke-opacity:1.0; stroke-width:0" 
   transform="translate(0 0) scale(1 1)">
<polygon style="fill-rule:evenodd; " 
points="85350,27750
85350,20250
89650,20250
89650,27750
" /> 
</g>
<g style="fill:#FFFFFF; fill-opacity:1.0; 
  stroke:#808000; stroke-linecap:round; stroke-linejoin:round; stroke-opacity:1.0; stroke-opacity:1.0; stroke-width:0" 
   transform="translate(0 0) scale(1 1)">
<ellipse cx="87500" cy="24000" rx="865" ry="865"  /> 
</g>
<g style="fill:#000000; fill-opacity:1.0; 
  stroke:#000000; stroke-linecap:round; stroke-linejoin:round; stroke-opacity:1.0; stroke-opacity:1.0; stroke-width:0" 
   transform="translate(0 0) scale(1 1)">
<polygon style="fill-rule:evenodd; " 
points="90350,27750
90350,20250
94650,20250
94650,27750
" /> 
</g>
<g style="fill:#FFFFFF; fill-opacity:1.0; 
  stroke:#808000; stroke-linecap:round; stroke-linejoin:round; stroke-opacity:1.0; stroke-opacity:1.0; stroke-width:0" 
   transform="translate(0 0) scale(1 1)">
<ellipse cx="92500" cy="24000" rx="865" ry="865"  /> 
</g>
<g style="fill:#000000; fill-opacity:1.0; 
  stroke:#000000; stroke-linecap:round; stroke-linejoin:round; stroke-opacity:1.0; stroke-opacity:1.0; stroke-width:0" 
   transform="translate(0 0) scale(1 1)">
<polygon style="fill-rule:evenodd; " 
points="95350,27750
95350,20250
99650,20250
99650,27750
" /> 
</g>
<g style="fill:#FFFFFF; fill-opacity:1.0; 
  stroke:#808000; stroke-linecap:round; stroke-linejoin:round; stroke-opacity:1.0; stroke-opacity:1.0; stroke-width:0" 
   transform="translate(0 0) scale(1 1)">
<ellipse cx="97500" cy="24000" rx="865" ry="865"  /> 
</g>
<g style="fill:#000000; fill-opacity:1.0; 
  stroke:#000000; stroke-linecap:round; stroke-linejoin:round; stroke-opacity:1.0; stroke-opacity:1.0; stroke-width:0" 
   transform="translate(0 0) scale(1 1)">
<polygon style="fill-rule:evenodd; " 
points="20350,59750
20350,52250
24650,52250
24650,59750
" /> 
</g>
<g style="fill:#FFFFFF; fill-opacity:1.0; 
  stroke:#808000; stroke-linecap:round; stroke-linejoin:round; stroke-opacity:1.0; stroke-opacity:1.0; stroke-width:0" 
   transform="translate(0 0) scale(1 1)">
<ellipse cx="22500" cy="56000" rx="865" ry="865"  /> 
</g>
<g style="fill:#000000; fill-opacity:1.0; 
  stroke:#000000; stroke-linecap:round; stroke-linejoin:round; stroke-opacity:1.0; stroke-opacity:1.0; stroke-width:0" 
   transform="translate(0 0) scale(1 1)">
<polygon style="fill-rule:evenodd; " 
points="25350,59750
25350,52250
29650,52250
29650,59750
" /> 
</g>
<g style="fill:#FFFFFF; fill-opacity:1.0; 
  stroke:#808000; stroke-linecap:round; stroke-linejoin:round; stroke-opacity:1.0; stroke-opacity:1.0; stroke-width:0" 
   transform="translate(0 0) scale(1 1)">
<ellipse cx="27500" cy="56000" rx="865" ry="865"  /> 
</g>
<g style="fill:#000000; fill-opacity:1.0; 
  stroke:#000000; stroke-linecap:round; stroke-linejoin:round; stroke-opacity:1.0; stroke-opacity:1.0; stroke-width:0" 
   transform="translate(0 0) scale(1 1)">
<polygon style="fill-rule:evenodd; " 
points="30350,59750
30350,52250
34650,52250
34650,59750
" /> 
</g>
<g style="fill:#FFFFFF; fill-opacity:1.0; 
  stroke:#808000; stroke-linecap:round; stroke-linejoin:round; stroke-opacity:1.0; stroke-opacity:1.0; stroke-width:0" 
   transform="translate(0 0) scale(1 1)">
<ellipse cx="32500" cy="56000" rx="865" ry="865"  /> 
</g>
<g style="fill:#000000; fill-opacity:1.0; 
  stroke:#000000; stroke-linecap:round; stroke-linejoin:round; stroke-opacity:1.0; stroke-opacity:1.0; stroke-width:0" 
   transform="translate(0 0) scale(1 1)">
<polygon style="fill-rule:evenodd; " 
points="35350,59750
35350,52250
39650,52250
39650,59750
" /> 
</g>
<g style="fill:#FFFFFF; fill-opacity:1.0; 
  stroke:#808000; stroke-linecap:round; stroke-linejoin:round; stroke-opacity:1.0; stroke-opacity:1.0; stroke-width:0" 
   transform="translate(0 0) scale(1 1)">
<ellipse cx="37500" cy="56000" rx="865" ry="865"  /> 
</g>
<g style="fill:#000000; fill-opacity:1.0; 
  stroke:#000000; stroke-linecap:round; stroke-linejoin:round; stroke-opacity:1.0; stroke-opacity:1.0; stroke-width:0" 
   transform="translate(0 0) scale(1 1)">
<polygon style="fill-rule:evenodd; " 
points="40350,59750
40350,52250
44650,52250
44650,59750
" /> 
</g>
<g style="fill:#FFFFFF; fill-opacity:1.0; 
  stroke:#808000; stroke-linecap:round; stroke-linejoin:round; stroke-opacity:1.0; stroke-opacity:1.0; stroke-width:0" 
   transform="translate(0 0) scale(1 1)">
<ellipse cx="42500" cy="56000" rx="865" ry="865"  /> 
</g>
<g style="fill:#000000; fill-opacity:1.0; 
  stroke:#000000; stroke-linecap:round; stroke-linejoin:round; stroke-opacity:1.0; stroke-opacity:1.0; stroke-width:0" 
   transform="translate(0 0) scale(1 1)">
<polygon style="fill-rule:evenodd; " 
points="45350,59750
45350,52250
49650,52250
49650,59750
" /> 
</g>
<g style="fill:#FFFFFF; fill-opacity:1.0; 
  stroke:#808000; stroke-linecap:round; stroke-linejoin:round; stroke-opacity:1.0; stroke-opacity:1.0; stroke-width:0" 
   transform="translate(0 0) scale(1 1)">
<ellipse cx="47500" cy="56000" rx="865" ry="865"  /> 
</g>
<g style="fill:#000000; fill-opacity:1.0; 
  stroke:#000000; stroke-linecap:round; stroke-linejoin:round; stroke-opacity:1.0; stroke-opacity:1.0; stroke-width:0" 
   transform="translate(0 0) scale(1 1)">
<polygon style="fill-rule:evenodd; " 
points="50350,59750
50350,52250
54650,52250
54650,59750
" /> 
</g>
<g style="fill:#FFFFFF; fill-opacity:1.0; 
  stroke:#808000; stroke-linecap:round; stroke-linejoin:round; stroke-opacity:1.0; stroke-opacity:1.0; stroke-width:0" 
   transform="translate(0 0) scale(1 1)">
<ellipse cx="52500" cy="56000" rx="865" ry="865"  /> 
</g>
<g style="fill:#000000; fill-opacity:1.0; 
  stroke:#000000; stroke-linecap:round; stroke-linejoin:round; stroke-opacity:1.0; stroke-opacity:1.0; stroke-width:0" 
   transform="translate(0 0) scale(1 1)">
<polygon style="fill-rule:evenodd; " 
points="55350,59750
55350,52250
59650,52250
59650,59750
" /> 
</g>
<g style="fill:#FFFFFF; fill-opacity:1.0; 
  stroke:#808000; stroke-linecap:round; stroke-linejoin:round; stroke-opacity:1.0; stroke-opacity:1.0; stroke-width:0" 
   transform="translate(0 0) scale(1 1)">
<ellipse cx="57500" cy="56000" rx="865" ry="865"  /> 
</g>
<g style="fill:#000000; fill-opacity:1.0; 
  stroke:#000000; stroke-linecap:round; stroke-linejoin:round; stroke-opacity:1.0; stroke-opacity:1.0; stroke-width:0" 
   transform="translate(0 0) scale(1 1)">
<polygon style="fill-rule:evenodd; " 
points="60350,59750
60350,52250
64650,52250
64650,59750
" /> 
</g>
<g style="fill:#FFFFFF; fill-opacity:1.0; 
  stroke:#808000; stroke-linecap:round; stroke-linejoin:round; stroke-opacity:1.0; stroke-opacity:1.0; stroke-width:0" 
   transform="translate(0 0) scale(1 1)">
<ellipse cx="62500" cy="56000" rx="865" ry="865"  /> 
</g>
<g style="fill:#000000; fill-opacity:1.0; 
  stroke:#000000; stroke-linecap:round; stroke-linejoin:round; stroke-opacity:1.0; stroke-opacity:1.0; stroke-width:0" 
   transform="translate(0 0) scale(1 1)">
<polygon style="fill-rule:evenodd; " 
points="65350,59750
65350,52250
69650,52250
69650,59750
" /> 
</g>
<g style="fill:#FFFFFF; fill-opacity:1.0; 
  stroke:#808000; stroke-linecap:round; stroke-linejoin:round; stroke-opacity:1.0; stroke-opacity:1.0; stroke-width:0" 
   transform="translate(0 0) scale(1 1)">
<ellipse cx="67500" cy="56000" rx="865" ry="865"  /> 
</g>
<g style="fill:#000000; fill-opacity:1.0; 
  stroke:#000000; stroke-linecap:round; stroke-linejoin:round; stroke-opacity:1.0; stroke-opacity:1.0; stroke-width:0" 
   transform="translate(0 0) scale(1 1)">
<polygon style="fill-rule:evenodd; " 
points="70350,59750
70350,52250
74650,52250
74650,59750
" /> 
</g>
<g style="fill:#FFFFFF; fill-opacity:1.0; 
  stroke:#808000; stroke-linecap:round; stroke-linejoin:round; stroke-opacity:1.0; stroke-opacity:1.0; stroke-width:0" 
   transform="translate(0 0) scale(1 1)">
<ellipse cx="72500" cy="56000" rx="865" ry="865"  /> 
</g>
<g style="fill:#000000; fill-opacity:1.0; 
  stroke:#000000; stroke-linecap:round; stroke-linejoin:round; stroke-opacity:1.0; stroke-opacity:1.0; stroke-width:0" 
   transform="translate(0 0) scale(1 1)">
<polygon style="fill-rule:evenodd; " 
points="75350,59750
75350,52250
79650,52250
79650,59750
" /> 
</g>
<g style="fill:#FFFFFF; fill-opacity:1.0; 
  stroke:#808000; stroke-linecap:round; stroke-linejoin:round; stroke-opacity:1.0; stroke-opacity:1.0; stroke-width:0" 
   transform="translate(0 0) scale(1 1)">
<ellipse cx="77500" cy="56000" rx="865" ry="865"  /> 
</g>
<g style="fill:#000000; fill-opacity:1.0; 
  stroke:#000000; stroke-linecap:round; stroke-linejoin:round; stroke-opacity:1.0; stroke-opacity:1.0; stroke-width:0" 
   transform="translate(0 0) scale(1 1)">
<polygon style="fill-rule:evenodd; " 
points="80350,59750
80350,52250
84650,52250
84650,59750
" /> 
</g>
<g style="fill:#FFFFFF; fill-opacity:1.0; 
  stroke:#808000; stroke-linecap:round; stroke-linejoin:round; stroke-opacity:1.0; stroke-opacity:1.0; stroke-width:0" 
   transform="translate(0 0) scale(1 1)">
<ellipse cx="82500" cy="56000" rx="865" ry="865"  /> 
</g>
<g style="fill:#000000; fill-opacity:1.0; 
  stroke:#000000; stroke-linecap:round; stroke-linejoin:round; stroke-opacity:1.0; stroke-opacity:1.0; stroke-width:0" 
   transform="translate(0 0) scale(1 1)">
<polygon style="fill-rule:evenodd; " 
points="85350,59750
85350,52250
89650,52250
89650,59750
" /> 
</g>
<g style="fill:#FFFFFF; fill-opacity:1.0; 
  stroke:#808000; stroke-linecap:round; stroke-linejoin:round; stroke-opacity:1.0; stroke-opacity:1.0; stroke-width:0" 
   transform="translate(0 0) scale(1 1)">
<ellipse cx="87500" cy="56000" rx="865" ry="865"  /> 
</g>
<g style="fill:#000000; fill-opacity:1.0; 
  stroke:#000000; stroke-linecap:round; stroke-linejoin:round; stroke-opacity:1.0; stroke-opacity:1.0; stroke-width:0" 
   transform="translate(0 0) scale(1 1)">
<polygon style="fill-rule:evenodd; " 
points="90350,59750
90350,52250
94650,52250
94650,59750
" /> 
</g>
<g style="fill:#FFFFFF; fill-opacity:1.0; 
  stroke:#808000; stroke-linecap:round; stroke-linejoin:round; stroke-opacity:1.0; stroke-opacity:1.0; stroke-width:0" 
   transform="translate(0 0) scale(1 1)">
<ellipse cx="92500" cy="56000" rx="865" ry="865"  /> 
</g>
<g style="fill:#000000; fill-opacity:1.0; 
  stroke:#000000; stroke-linecap:round; stroke-linejoin:round; stroke-opacity:1.0; stroke-opacity:1.0; stroke-width:0" 
   transform="translate(0 0) scale(1 1)">
<polygon style="fill-rule:evenodd; " 
points="95350,59750
95350,52250
99650,52250
99650,59750
" /> 
</g>
<g style="fill:#FFFFFF; fill-opacity:1.0; 
  stroke:#808000; stroke-linecap:round; stroke-linejoin:round; stroke-opacity:1.0; stroke-opacity:1.0; stroke-width:0" 
   transform="translate(0 0) scale(1 1)">
<ellipse cx="97500" cy="56000" rx="865" ry="865"  /> 
</g>
<g style="fill:#000000; fill-opacity:1.0; 
  stroke:#000000; stroke-linecap:round; stroke-linejoin:round; stroke-opacity:1.0; stroke-opacity:1.0; stroke-width:0" 
   transform="translate(0 0) scale(1 1)">
<ellipse cx="26000" cy="37500" rx="350" ry="350"  /> 
</g>
<g style="fill:#FFFFFF; fill-opacity:1.0; 
  stroke:#808000; stroke-linecap:round; stroke-linejoin:round; stroke-opacity:1.0; stroke-opacity:1.0; stroke-width:0" 
   transform="translate(0 0) scale(1 1)">
<ellipse cx="26000" cy="37500" rx="225" ry="225"  /> 
</g>
<g style="fill:#000000; fill-opacity:1.0; 
  stroke:#000000; stroke-linecap:round; stroke-linejoin:round; stroke-opacity:1.0; stroke-opacity:1.0; stroke-width:0" 
   transform="translate(0 0) scale(1 1)">
<polygon style="fill-rule:evenodd; " 
points="26350,32850
25650,32850
25650,32150
26350,32150
" /> 
</g>
<g style="fill:#FFFFFF; fill-opacity:1.0; 
  stroke:#808000; stroke-linecap:round; stroke-linejoin:round; stroke-opacity:1.0; stroke-opacity:1.0; stroke-width:0" 
   transform="translate(0 0) scale(1 1)">
<ellipse cx="26000" cy="32500" rx="225" ry="225"  /> 
</g>
<g style="fill:#000000; fill-opacity:1.0; 
  stroke:#000000; stroke-linecap:round; stroke-linejoin:round; stroke-opacity:1.0; stroke-opacity:1.0; stroke-width:0" 
   transform="translate(0 0) scale(1 1)">
<ellipse cx="26000" cy="42500" rx="350" ry="350"  /> 
</g>
<g style="fill:#FFFFFF; fill-opacity:1.0; 
  stroke:#808000; stroke-linecap:round; stroke-linejoin:round; stroke-opacity:1.0; stroke-opacity:1.0; stroke-width:0" 
   transform="translate(0 0) scale(1 1)">
<ellipse cx="26000" cy="42500" rx="225" ry="225"  /> 
</g>
<g style="fill:#000000; fill-opacity:1.0; 
  stroke:#000000; stroke-linecap:round; stroke-linejoin:round; stroke-opacity:1.0; stroke-opacity:1.0; stroke-width:0" 
   transform="translate(0 0) scale(1 1)">
<polygon style="fill-rule:evenodd; " 
points="25650,47150
26350,47150
26350,47850
25650,47850
" /> 
</g>
<g style="fill:#FFFFFF; fill-opacity:1.0; 
  stroke:#808000; stroke-linecap:round; stroke-linejoin:round; stroke-opacity:1.0; stroke-opacity:1.0; stroke-width:0" 
   transform="translate(0 0) scale(1 1)">
<ellipse cx="26000" cy="47500" rx="225" ry="225"  /> 
</g>
<g style="fill:#000000; fill-opacity:1.0; 
  stroke:#000000; stroke-linecap:round; stroke-linejoin:round; stroke-opacity:1.0; stroke-opacity:1.0; stroke-width:0" 
   transform="translate(0 0) scale(1 1)">
<polygon style="fill-rule:evenodd; " 
points="44900,32200
44900,39200
37900,39200
37900,32200
" /> 
</g>
<g style="fill:#FFFFFF; fill-opacity:1.0; 
  stroke:#808000; stroke-linecap:round; stroke-linejoin:round; stroke-opacity:1.0; stroke-opacity:1.0; stroke-width:0" 
   transform="translate(0 0) scale(1 1)">
<ellipse cx="41400" cy="35700" rx="1750" ry="1750"  /> 
</g>
<g style="fill:#000000; fill-opacity:1.0; 
  stroke:#000000; stroke-linecap:round; stroke-linejoin:round; stroke-opacity:1.0; stroke-opacity:1.0; stroke-width:0" 
   transform="translate(0 0) scale(1 1)">
<ellipse cx="36400" cy="35700" rx="1000" ry="1000"  /> 
</g>
<g style="fill:#FFFFFF; fill-opacity:1.0; 
  stroke:#808000; stroke-linecap:round; stroke-linejoin:round; stroke-opacity:1.0; stroke-opacity:1.0; stroke-width:0" 
   transform="translate(0 0) scale(1 1)">
<ellipse cx="36400" cy="35700" rx="500" ry="500"  /> 
</g>
<g style="fill:#000000; fill-opacity:1.0; 
  stroke:#000000; stroke-linecap:round; stroke-linejoin:round; stroke-opacity:1.0; stroke-opacity:1.0; stroke-width:0" 
   transform="translate(0 0) scale(1 1)">
<polygon style="fill-rule:evenodd; " 
points="44900,41200
44900,48200
37900,48200
37900,41200
" /> 
</g>
<g style="fill:#FFFFFF; fill-opacity:1.0; 
  stroke:#808000; stroke-linecap:round; stroke-linejoin:round; stroke-opacity:1.0; stroke-opacity:1.0; stroke-width:0" 
   transform="translate(0 0) scale(1 1)">
<ellipse cx="41400" cy="44700" rx="1750" ry="1750"  /> 
</g>
<g style="fill:#000000; fill-opacity:1.0; 
  stroke:#000000; stroke-linecap:round; stroke-linejoin:round; stroke-opacity:1.0; stroke-opacity:1.0; stroke-width:0" 
   transform="translate(0 0) scale(1 1)">
<ellipse cx="36400" cy="44700" rx="1000" ry="1000"  /> 
</g>
<g style="fill:#FFFFFF; fill-opacity:1.0; 
  stroke:#808000; stroke-linecap:round; stroke-linejoin:round; stroke-opacity:1.0; stroke-opacity:1.0; stroke-width:0" 
   transform="translate(0 0) scale(1 1)">
<ellipse cx="36400" cy="44700" rx="500" ry="500"  /> 
</g>
<g style="fill:#FFFFFF; fill-opacity:1.0; 
  stroke:#FFFFFF; stroke-linecap:round; stroke-linejoin:round; stroke-opacity:1.0; stroke-opacity:1.0; stroke-width:0" 
   transform="translate(0 0) scale(1 1)">
<ellipse cx="22525" cy="32500" rx="125" ry="125"  /> 
</g> 
</svg> 
